<?xml version="1.0" encoding="utf-8" standalone="no"?>
<!DOCTYPE svg PUBLIC "-//W3C//DTD SVG 1.1//EN"
  "http://www.w3.org/Graphics/SVG/1.1/DTD/svg11.dtd">
<!-- Created with matplotlib (https://matplotlib.org/) -->
<svg height="345.6pt" version="1.1" viewBox="0 0 460.8 345.6" width="460.8pt" xmlns="http://www.w3.org/2000/svg" xmlns:xlink="http://www.w3.org/1999/xlink">
 <metadata>
  <rdf:RDF xmlns:cc="http://creativecommons.org/ns#" xmlns:dc="http://purl.org/dc/elements/1.1/" xmlns:rdf="http://www.w3.org/1999/02/22-rdf-syntax-ns#">
   <cc:Work>
    <dc:type rdf:resource="http://purl.org/dc/dcmitype/StillImage"/>
    <dc:date>2020-09-06T13:23:32.716271</dc:date>
    <dc:format>image/svg+xml</dc:format>
    <dc:creator>
     <cc:Agent>
      <dc:title>Matplotlib v3.3.0, https://matplotlib.org/</dc:title>
     </cc:Agent>
    </dc:creator>
   </cc:Work>
  </rdf:RDF>
 </metadata>
 <defs>
  <style type="text/css">*{stroke-linecap:butt;stroke-linejoin:round;}</style>
 </defs>
 <g id="figure_1">
  <g id="patch_1">
   <path d="M 0 345.6 
L 460.8 345.6 
L 460.8 0 
L 0 0 
z
" style="fill:#ffffff;"/>
  </g>
  <g id="axes_1">
   <g id="patch_2">
    <path d="M 90.297665 303.924703 
L 440.715565 303.924703 
L 440.715565 25.353876 
L 90.297665 25.353876 
z
" style="fill:#ffffff;"/>
   </g>
   <g id="patch_3">
    <path clip-path="url(#p311cf0fd66)" d="M 90.297665 291.262393 
L 133.744349 291.262393 
L 133.744349 272.503415 
L 90.297665 272.503415 
z
" style="fill:#0000ff;opacity:0.9;"/>
   </g>
   <g id="patch_4">
    <path clip-path="url(#p311cf0fd66)" d="M 90.297665 267.81367 
L 134.333365 267.81367 
L 134.333365 249.054692 
L 90.297665 249.054692 
z
" style="fill:#0000ff;opacity:0.9;"/>
   </g>
   <g id="patch_5">
    <path clip-path="url(#p311cf0fd66)" d="M 90.297665 244.364947 
L 120.488243 244.364947 
L 120.488243 225.605969 
L 90.297665 225.605969 
z
" style="fill:#0000ff;opacity:0.9;"/>
   </g>
   <g id="patch_6">
    <path clip-path="url(#p311cf0fd66)" d="M 90.297665 220.916224 
L 424.028998 220.916224 
L 424.028998 202.157246 
L 90.297665 202.157246 
z
" style="fill:#0000ff;opacity:0.9;"/>
   </g>
   <g id="patch_7">
    <path clip-path="url(#p311cf0fd66)" d="M 90.297665 197.467501 
L 92.260416 197.467501 
L 92.260416 178.708523 
L 90.297665 178.708523 
z
" style="fill:#0000ff;opacity:0.9;"/>
   </g>
   <g id="patch_8">
    <path clip-path="url(#p311cf0fd66)" d="M 90.297665 174.018779 
L 97.066563 174.018779 
L 97.066563 155.2598 
L 90.297665 155.2598 
z
" style="fill:#0000ff;opacity:0.9;"/>
   </g>
   <g id="patch_9">
    <path clip-path="url(#p311cf0fd66)" d="M 90.297665 150.570056 
L 125.225453 150.570056 
L 125.225453 131.811077 
L 90.297665 131.811077 
z
" style="fill:#008000;opacity:0.9;stroke:#008000;stroke-linejoin:miter;"/>
   </g>
   <g id="patch_10">
    <path clip-path="url(#p311cf0fd66)" d="M 90.297665 127.121333 
L 125.229788 127.121333 
L 125.229788 108.362355 
L 90.297665 108.362355 
z
" style="fill:#008000;opacity:0.9;stroke:#008000;stroke-linejoin:miter;"/>
   </g>
   <g id="patch_11">
    <path clip-path="url(#p311cf0fd66)" d="M 90.297665 103.67261 
L 117.547837 103.67261 
L 117.547837 84.913632 
L 90.297665 84.913632 
z
" style="fill:#008000;opacity:0.9;stroke:#008000;stroke-linejoin:miter;"/>
   </g>
   <g id="patch_12">
    <path clip-path="url(#p311cf0fd66)" d="M 90.297665 80.223887 
L 166.785703 80.223887 
L 166.785703 61.464909 
L 90.297665 61.464909 
z
" style="fill:#008000;opacity:0.9;stroke:#008000;stroke-linejoin:miter;"/>
   </g>
   <g id="patch_13">
    <path clip-path="url(#p311cf0fd66)" d="M 90.297665 56.775164 
L 355.701835 56.775164 
L 355.701835 38.016186 
L 90.297665 38.016186 
z
" style="fill:#008000;opacity:0.9;stroke:#008000;stroke-linejoin:miter;"/>
   </g>
   <g id="matplotlib.axis_1">
    <g id="xtick_1">
     <g id="line2d_1">
      <defs>
       <path d="M 0 0 
L 0 3.5 
" id="mcc3d8e9e28" style="stroke:#000000;stroke-width:0.8;"/>
      </defs>
      <g>
       <use style="stroke:#000000;stroke-width:0.8;" x="90.297665" xlink:href="#mcc3d8e9e28" y="303.924703"/>
      </g>
     </g>
     <g id="text_1">
      <!-- $\mathdefault{0}$ -->
      <g transform="translate(87.807005 318.052941)scale(0.1 -0.1)">
       <defs>
        <path d="M 26.296875 69 
C 10.796875 69 2.90625 56.6875 2.90625 32.453125 
C 2.90625 20.71875 5 10.625 8.5 5.71875 
C 12 0.796875 17.59375 -2 23.796875 -2 
C 38.90625 -2 46.5 11.015625 46.5 36.65625 
C 46.5 58.578125 40 69 26.296875 69 
z
M 24.5 65.5 
C 34.203125 65.5 38.09375 55.6875 38.09375 31.640625 
C 38.09375 10.328125 34.296875 1.5 25.09375 1.5 
C 15.40625 1.5 11.296875 11.625 11.296875 36.0625 
C 11.296875 57.1875 15 65.5 24.5 65.5 
z
" id="URW_Palladio_L_Roman-48"/>
       </defs>
       <use transform="scale(0.996264)" xlink:href="#URW_Palladio_L_Roman-48"/>
      </g>
     </g>
    </g>
    <g id="xtick_2">
     <g id="line2d_2">
      <g>
       <use style="stroke:#000000;stroke-width:0.8;" x="133.744349" xlink:href="#mcc3d8e9e28" y="303.924703"/>
      </g>
     </g>
     <g id="text_2">
      <!-- $\mathdefault{1}$ -->
      <g transform="translate(131.253689 318.052941)scale(0.1 -0.1)">
       <defs>
        <path d="M 6.703125 56 
L 7.703125 56 
L 20.59375 61.8125 
C 20.703125 61.90625 20.796875 61.90625 20.90625 61.90625 
C 21.5 61.90625 21.703125 61.015625 21.703125 58.609375 
L 21.703125 9.578125 
C 21.703125 4.3125 20.59375 3.203125 15.203125 3.203125 
L 9.59375 3.203125 
L 9.59375 0 
C 25 0 25 0 26.09375 0 
C 27.40625 0 29.59375 0 33 0 
C 34.203125 0 37.703125 0 41.796875 0 
L 41.796875 3.203125 
L 36.59375 3.203125 
C 31.09375 3.203125 30.09375 4.3125 30.09375 9.5625 
L 30.09375 69.421875 
L 28.703125 69.921875 
C 22.203125 66.515625 15.09375 63.515625 6 60.3125 
z
" id="URW_Palladio_L_Roman-49"/>
       </defs>
       <use transform="scale(0.996264)" xlink:href="#URW_Palladio_L_Roman-49"/>
      </g>
     </g>
    </g>
    <g id="xtick_3">
     <g id="line2d_3">
      <g>
       <use style="stroke:#000000;stroke-width:0.8;" x="177.191033" xlink:href="#mcc3d8e9e28" y="303.924703"/>
      </g>
     </g>
     <g id="text_3">
      <!-- $\mathdefault{2}$ -->
      <g transform="translate(174.700373 318.052941)scale(0.1 -0.1)">
       <defs>
        <path d="M 1.59375 2.5 
L 1.59375 0 
C 20.296875 0 20.296875 0 23.90625 0 
C 27.5 0 27.5 0 46.796875 0 
C 46.59375 1.953125 46.59375 2.90625 46.59375 4.203125 
C 46.59375 5.4375 46.59375 6.359375 46.796875 8.421875 
C 35.296875 8.421875 30.703125 8.421875 12.203125 8.421875 
L 30.40625 27.515625 
C 40.09375 37.71875 43.09375 43.171875 43.09375 50.59375 
C 43.09375 61.96875 35.296875 69 22.59375 69 
C 15.40625 69 10.5 67 5.59375 62.015625 
L 3.90625 48.421875 
L 6.796875 48.421875 
L 8.09375 53.015625 
C 9.703125 58.796875 13.296875 61.296875 20 61.296875 
C 28.59375 61.296875 34.09375 55.890625 34.09375 47.421875 
C 34.09375 39.921875 29.90625 32.546875 18.59375 20.5625 
z
" id="URW_Palladio_L_Roman-50"/>
       </defs>
       <use transform="scale(0.996264)" xlink:href="#URW_Palladio_L_Roman-50"/>
      </g>
     </g>
    </g>
    <g id="xtick_4">
     <g id="line2d_4">
      <g>
       <use style="stroke:#000000;stroke-width:0.8;" x="220.637717" xlink:href="#mcc3d8e9e28" y="303.924703"/>
      </g>
     </g>
     <g id="text_4">
      <!-- $\mathdefault{3}$ -->
      <g transform="translate(218.147057 318.052941)scale(0.1 -0.1)">
       <defs>
        <path d="M 4.296875 49.953125 
L 7.40625 49.953125 
L 9.203125 55.53125 
C 10.296875 58.90625 16.59375 62.296875 21.796875 62.296875 
C 28.296875 62.296875 33.59375 57.015625 33.59375 50.75 
C 33.59375 43.28125 27.703125 37 20.59375 37 
C 19.796875 37 18.703125 37 17.40625 37.203125 
L 15.90625 37.203125 
L 14.703125 31.984375 
L 15.40625 31.375 
C 19.203125 33.09375 21.09375 33.59375 23.796875 33.59375 
C 32.09375 33.59375 36.90625 28.265625 36.90625 19.09375 
C 36.90625 8.84375 30.796875 2.109375 21.5 2.109375 
C 16.90625 2.109375 12.796875 3.609375 9.796875 6.421875 
C 7.40625 8.640625 6.09375 10.953125 4.203125 16.390625 
L 1.5 15.390625 
C 3.59375 9.265625 4.40625 5.640625 5 0.609375 
C 10.296875 -1.203125 14.703125 -2 18.40625 -2 
C 26.40625 -2 35.59375 2.515625 41.09375 9.265625 
C 44.5 13.390625 46.203125 17.8125 46.203125 22.53125 
C 46.203125 27.359375 44.203125 31.59375 40.59375 34.09375 
C 38.09375 35.90625 35.796875 36.71875 30.796875 37.609375 
C 38.796875 43.796875 41.796875 48.375 41.796875 54.25 
C 41.796875 63.125 34.40625 69 23.296875 69 
C 16.5 69 12 67.109375 7.203125 62.328125 
z
" id="URW_Palladio_L_Roman-51"/>
       </defs>
       <use transform="scale(0.996264)" xlink:href="#URW_Palladio_L_Roman-51"/>
      </g>
     </g>
    </g>
    <g id="xtick_5">
     <g id="line2d_5">
      <g>
       <use style="stroke:#000000;stroke-width:0.8;" x="264.084401" xlink:href="#mcc3d8e9e28" y="303.924703"/>
      </g>
     </g>
     <g id="text_5">
      <!-- $\mathdefault{4}$ -->
      <g transform="translate(261.593741 318.052941)scale(0.1 -0.1)">
       <defs>
        <path d="M 28 18 
L 28 10.515625 
C 28 4.515625 26.90625 3.109375 22 3.109375 
L 15.796875 3.109375 
L 15.796875 0 
C 29.09375 0 29.09375 0 31.5 0 
C 33.90625 0 33.90625 0 47.203125 0 
L 47.203125 3.109375 
L 42.40625 3.109375 
C 37.5 3.109375 36.40625 4.40625 36.40625 10.453125 
L 36.40625 18 
C 42.296875 18 44.40625 18 47.203125 17.703125 
L 47.203125 24.8125 
C 42.5 24.421875 40.59375 24.421875 39.09375 24.421875 
L 38.796875 24.421875 
L 36.40625 24.421875 
L 36.40625 38.390625 
C 36.40625 56.25 36.59375 64.875 37.09375 69 
L 35.90625 69.5 
L 28.5 66.796875 
L 0.203125 20.296875 
L 1.296875 18 
z
M 28 24.421875 
L 6.5 24.421875 
L 28 59.78125 
z
" id="URW_Palladio_L_Roman-52"/>
       </defs>
       <use transform="scale(0.996264)" xlink:href="#URW_Palladio_L_Roman-52"/>
      </g>
     </g>
    </g>
    <g id="xtick_6">
     <g id="line2d_6">
      <g>
       <use style="stroke:#000000;stroke-width:0.8;" x="307.531085" xlink:href="#mcc3d8e9e28" y="303.924703"/>
      </g>
     </g>
     <g id="text_6">
      <!-- $\mathdefault{5}$ -->
      <g transform="translate(305.040425 318.052941)scale(0.1 -0.1)">
       <defs>
        <path d="M 12.703125 60.578125 
C 25.59375 60.578125 31.203125 60.578125 43.203125 60.578125 
L 43.703125 61.046875 
C 43.5 62.75 43.5 63.5 43.5 64.75 
C 43.5 66.078125 43.5 66.828125 43.703125 68.53125 
L 43.203125 69 
C 35.703125 69 31.203125 69 25.796875 69 
C 20.296875 69 15.90625 69 8.40625 69 
L 7.90625 68.796875 
C 8 62.671875 8.09375 58.265625 8.09375 55.046875 
C 8.09375 46.515625 7.796875 36.875 7.5 32.453125 
L 9.5 31.84375 
C 14.203125 36.578125 16.90625 38 21.796875 38 
C 31.40625 38 37.40625 31.140625 37.40625 20.25 
C 37.40625 9.0625 31 2.5 20.09375 2.5 
C 14.703125 2.5 9.703125 4.328125 8.296875 6.9375 
L 3.703125 15.203125 
L 1.296875 13.796875 
C 3.59375 8.0625 4.796875 4.84375 6.203125 0.421875 
C 9 -1.109375 13 -2 17.296875 -2 
C 24 -2 31.09375 0.921875 36.59375 5.75 
C 42.703125 11.1875 45.90625 18.03125 45.90625 25.46875 
C 45.90625 36.859375 37.796875 44.90625 26.40625 44.90625 
C 21.59375 44.90625 18 43.609375 11.796875 39.90625 
z
" id="URW_Palladio_L_Roman-53"/>
       </defs>
       <use transform="scale(0.996264)" xlink:href="#URW_Palladio_L_Roman-53"/>
      </g>
     </g>
    </g>
    <g id="xtick_7">
     <g id="line2d_7">
      <g>
       <use style="stroke:#000000;stroke-width:0.8;" x="350.97777" xlink:href="#mcc3d8e9e28" y="303.924703"/>
      </g>
     </g>
     <g id="text_7">
      <!-- $\mathdefault{6}$ -->
      <g transform="translate(348.48711 318.052941)scale(0.1 -0.1)">
       <defs>
        <path d="M 41.59375 67.34375 
L 37.90625 69.046875 
C 28.296875 65.84375 24.203125 63.84375 19.09375 59.4375 
C 8.796875 50.71875 3.203125 38.5 3.203125 24.765625 
C 3.203125 8.21875 11.203125 -2 24.09375 -2 
C 37.09375 -2 46.796875 8.3125 46.796875 21.953125 
C 46.796875 33.484375 39.90625 41 29.296875 41 
C 24.296875 41 21.296875 39.6875 15.40625 34.984375 
C 14.296875 34.078125 14.203125 33.984375 13.09375 33.1875 
C 15.203125 51.3125 23.59375 61.140625 41.59375 66.546875 
z
M 25.5 34.984375 
C 33.09375 34.984375 38.203125 28.375 38.203125 18.453125 
C 38.203125 8.015625 33.09375 1.296875 25.40625 1.296875 
C 16.90625 1.296875 12.296875 8.609375 12.296875 22.0625 
C 12.296875 25.5625 12.703125 27.46875 13.796875 29.171875 
C 16 32.578125 20.703125 34.984375 25.5 34.984375 
z
" id="URW_Palladio_L_Roman-54"/>
       </defs>
       <use transform="scale(0.996264)" xlink:href="#URW_Palladio_L_Roman-54"/>
      </g>
     </g>
    </g>
    <g id="xtick_8">
     <g id="line2d_8">
      <g>
       <use style="stroke:#000000;stroke-width:0.8;" x="394.424454" xlink:href="#mcc3d8e9e28" y="303.924703"/>
      </g>
     </g>
     <g id="text_8">
      <!-- $\mathdefault{7}$ -->
      <g transform="translate(391.933794 318.052941)scale(0.1 -0.1)">
       <defs>
        <path d="M 5.59375 0.5 
L 6.5 -0.796875 
C 10.40625 -0.5 10.40625 -0.5 11.09375 -0.5 
C 11.796875 -0.5 11.796875 -0.5 15.703125 -0.796875 
C 19.90625 10.140625 24.796875 20.578125 31.40625 32.609375 
L 49.703125 65.609375 
L 49.703125 68.3125 
C 38.90625 68.3125 35.40625 68.3125 27.296875 68.3125 
C 20 68.3125 15.09375 68.3125 5.40625 68.3125 
L 4.40625 68.109375 
C 4.703125 58.59375 4.703125 58.59375 4.703125 57.578125 
C 4.703125 56.46875 4.703125 56.46875 4.40625 47.359375 
L 7.40625 47.359375 
L 8.09375 52.96875 
C 8.90625 59.203125 9.59375 60 14.203125 60 
L 40.90625 60 
C 36.90625 51.765625 33.796875 45.953125 30 39.828125 
z
" id="URW_Palladio_L_Roman-55"/>
       </defs>
       <use transform="scale(0.996264)" xlink:href="#URW_Palladio_L_Roman-55"/>
      </g>
     </g>
    </g>
    <g id="xtick_9">
     <g id="line2d_9">
      <g>
       <use style="stroke:#000000;stroke-width:0.8;" x="437.871138" xlink:href="#mcc3d8e9e28" y="303.924703"/>
      </g>
     </g>
     <g id="text_9">
      <!-- $\mathdefault{8}$ -->
      <g transform="translate(435.380478 318.052941)scale(0.1 -0.1)">
       <defs>
        <path d="M 16.796875 34.546875 
C 12.703125 32.65625 11 31.546875 8.796875 29.4375 
C 5 25.640625 3 21.125 3 15.921875 
C 3 5.609375 11.296875 -2 22.59375 -2 
C 35.59375 -2 46.40625 8.21875 46.40625 20.625 
C 46.40625 28.640625 42.703125 32.953125 31.296875 38.15625 
C 40.40625 44.375 43.59375 48.578125 43.59375 54.578125 
C 43.59375 63.1875 36.5 69 25.90625 69 
C 14 69 5.296875 61.390625 5.296875 50.890625 
C 5.296875 44.078125 8 40.265625 16.796875 34.546875 
z
M 28.40625 29.546875 
C 34.703125 26.734375 38.5 21.828125 38.5 16.4375 
C 38.5 8.015625 32.203125 1.40625 24.09375 1.40625 
C 15.59375 1.40625 10.09375 7.421875 10.09375 16.734375 
C 10.09375 24.03125 13 28.640625 20.40625 33.15625 
z
M 22.296875 42.375 
C 16 45.46875 12.796875 49.484375 12.796875 54.484375 
C 12.796875 61.09375 17.59375 65.59375 24.703125 65.59375 
C 32 65.59375 36.796875 60.796875 36.796875 53.46875 
C 36.796875 47.78125 34.296875 43.875 27.796875 39.65625 
z
" id="URW_Palladio_L_Roman-56"/>
       </defs>
       <use transform="scale(0.996264)" xlink:href="#URW_Palladio_L_Roman-56"/>
      </g>
     </g>
    </g>
    <g id="text_10">
     <!-- Speedup (larger is better) -->
     <g transform="translate(209.786374 331.990589)scale(0.1 -0.1)">
      <defs>
       <path d="M 44.703125 52.671875 
C 44.703125 57.984375 45.09375 61.375 46.09375 66.78125 
C 38.09375 70 33.59375 71 28.09375 71 
C 13.203125 71 2.40625 61.578125 2.40625 48.46875 
C 2.40625 43.5625 3.703125 39.953125 6.59375 37.25 
C 10 34.15625 14.59375 32.546875 24.296875 31.25 
C 32 30.140625 35.5 29.046875 38.09375 26.734375 
C 40.703125 24.640625 41.90625 21.734375 41.90625 17.921875 
C 41.90625 8.921875 34.40625 2.40625 24 2.40625 
C 16 2.40625 8.203125 6.3125 7.703125 10.40625 
L 6.90625 17.125 
L 3.703125 17.125 
C 3.796875 15.3125 3.796875 13.71875 3.796875 13.125 
C 3.796875 8.515625 3.59375 6.3125 3 1.8125 
C 8.703125 -0.703125 14.5 -2 20.296875 -2 
C 37.703125 -2 50.296875 8.515625 50.296875 23.03125 
C 50.296875 27.734375 49 31.046875 46.203125 33.640625 
C 42.703125 36.9375 38.5 38.25 27.296875 39.75 
C 15.09375 41.34375 10.796875 44.65625 10.796875 52.375 
C 10.796875 60.78125 17.09375 66.78125 25.90625 66.78125 
C 29.796875 66.78125 33.5 65.984375 36.203125 64.484375 
C 39.5 62.78125 40.59375 61.28125 40.90625 58.390625 
L 41.5 52.671875 
z
" id="URW_Palladio_L_Roman-83"/>
       <path d="M 1 40.078125 
L 4.703125 40.078125 
C 8.703125 40.078125 9.09375 39.375 9.09375 32.734375 
L 9.09375 -17.84375 
C 9.09375 -24.1875 8.796875 -24.890625 5.40625 -24.890625 
L 0.796875 -24.890625 
L 0.796875 -28 
C 10.796875 -28 10.796875 -28 13.296875 -28 
C 15.796875 -28 15.796875 -28 25.796875 -28 
L 25.796875 -24.890625 
L 21.203125 -24.890625 
C 17.796875 -24.890625 17.5 -24.171875 17.5 -17.78125 
L 17.5 1.390625 
C 20.5 -0.40625 23.703125 -1.109375 28.203125 -1.109375 
C 31.09375 -1.109375 33.703125 -0.5 35.296875 0.5 
L 46.703125 7.890625 
C 50.703125 10.5 55.40625 20.78125 55.40625 27.1875 
C 55.40625 38.296875 46.203125 47 34.59375 47 
C 30.90625 47 27.296875 45.984375 25.703125 44.484375 
L 17.5 36.984375 
L 17.5 46.59375 
L 16.59375 47 
C 11.5 44.890625 6.296875 43.484375 1 42.890625 
z
M 17.5 30.6875 
C 17.5 32.078125 18 33.1875 19.296875 34.890625 
C 22.203125 38.578125 26.296875 40.484375 31.296875 40.484375 
C 40.703125 40.484375 46.703125 33.890625 46.703125 23.5 
C 46.703125 12.296875 40 4 31 4 
C 25.5 4 21.40625 5.8125 17.5 9.890625 
z
" id="URW_Palladio_L_Roman-112"/>
       <path d="M 43.703125 6.984375 
L 42.40625 7.984375 
C 36 4.203125 33.703125 3.3125 29.40625 3.3125 
C 22.90625 3.3125 17.5 6.21875 14.703125 11.109375 
C 12.796875 14.390625 12.09375 17.203125 11.90625 23 
L 26.5 23 
C 33.40625 23 37.703125 23 44.59375 24.125 
C 44.703125 25.53125 44.796875 26.453125 44.796875 27.671875 
C 44.796875 39.375 37.40625 47 26.203125 47 
C 22.5 47 18.203125 45.6875 14.09375 43.28125 
C 5.90625 38.578125 2.59375 32.359375 2.59375 21.9375 
C 2.59375 15.625 4.09375 10.21875 6.796875 6.40625 
C 10.796875 1.109375 17.5 -2 25 -2 
C 28.703125 -2 32.40625 -1.203125 36.5 0.578125 
C 39.203125 1.6875 41.296875 2.984375 41.703125 3.59375 
z
M 35.90625 26.40625 
C 30.703125 26.40625 28.296875 26.40625 24.703125 26.40625 
C 20.09375 26.40625 17.5 26.40625 12.09375 26.90625 
C 12.09375 31.671875 12.5 33.890625 13.796875 36.515625 
C 15.90625 40.96875 20.203125 43.6875 25 43.6875 
C 28.296875 43.6875 30.90625 42.359375 32.703125 39.59375 
C 34.90625 36.234375 35.59375 33.265625 35.90625 26.40625 
z
" id="URW_Palladio_L_Roman-101"/>
       <path d="M 41.203125 43.78125 
C 35.59375 46.1875 32.796875 47 29.296875 47 
C 26.59375 47 24.203125 46.390625 21.703125 45.109375 
L 12.90625 40.515625 
C 7.203125 37.515625 3.5 30.234375 3.5 21.75 
C 3.5 13.765625 6.203125 7.1875 11.09375 3.1875 
C 14.5 0.296875 19.203125 -1 25.703125 -1 
C 27.703125 -1 30 -0.59375 30.5 -0.203125 
L 41.59375 9.109375 
L 41.09375 -0.109375 
C 46 -0.109375 47.59375 -0.109375 48.796875 -0.109375 
C 49.59375 -0.109375 51 -0.109375 53.09375 -0.109375 
C 53.796875 -0.109375 55.796875 -0.109375 57.90625 -0.109375 
L 57.90625 3 
L 53.296875 3 
C 49.90625 3 49.59375 3.703125 49.59375 10.046875 
L 49.59375 71.984375 
L 48.703125 72.796875 
C 44.296875 71.09375 41 70.28125 33.09375 69.078125 
L 33.09375 66.28125 
L 38.703125 66.28125 
C 40.5 66.28125 41.203125 65.171875 41.203125 62.15625 
z
M 41.203125 22.25 
C 41.203125 15.765625 41 14.78125 39.703125 12.484375 
C 36.90625 7.796875 32 4.71875 27.296875 4.71875 
C 18.5 4.71875 12.203125 13.1875 12.203125 25.046875 
C 12.203125 35.90625 17.59375 42.28125 26.59375 42.28125 
C 30.40625 42.28125 34.40625 40.984375 37.90625 38.59375 
C 40 37.203125 41.203125 35.90625 41.203125 35.09375 
z
" id="URW_Palladio_L_Roman-100"/>
       <path d="M 50.296875 47.015625 
L 49.40625 47.421875 
C 44.296875 45.3125 39.09375 43.90625 33.796875 43.3125 
L 33.796875 40.5 
L 37.5 40.5 
C 41.5 40.5 41.90625 39.796875 41.90625 33.140625 
L 41.90625 16.71875 
C 41.90625 14.5 40.5 11.671875 38.203125 9.359375 
C 35.40625 6.53125 32.203125 5.109375 28.296875 5.109375 
C 24.796875 5.109375 22 6.21875 20.40625 8.140625 
C 19 9.75 18.296875 12.875 18.296875 17.296875 
L 18.296875 47.015625 
L 17.40625 47.421875 
C 12.296875 45.3125 7.09375 43.90625 1.796875 43.3125 
L 1.796875 40.5 
L 5.5 40.5 
C 9.5 40.5 9.90625 39.796875 9.90625 33.15625 
L 9.90625 16.234375 
C 9.90625 9.171875 10.5 6.046875 12.296875 3.546875 
C 14.5 0.515625 18.296875 -1 24 -1 
C 28.5 -1 32.5 0.40625 35.203125 2.90625 
L 41.90625 9.140625 
C 41.90625 6.265625 41.796875 4.65625 41.5 0 
C 48.203125 0 48.296875 0 49.796875 0 
C 51.203125 0 51.203125 0 58.09375 0 
L 58.09375 2.90625 
L 54 3.3125 
C 50.59375 3.3125 50.296875 3.921875 50.296875 10.375 
z
" id="URW_Palladio_L_Roman-117"/>
       <path d="M 30.09375 -19.4375 
C 22.90625 -10.515625 20.296875 -5.71875 17.703125 3.3125 
C 15.59375 10.515625 14.59375 18.140625 14.59375 26.65625 
C 14.59375 34.96875 15.59375 42.078125 17.5 48.59375 
C 20.09375 56.90625 22.796875 61.625 30.09375 70.140625 
L 28.203125 72.75 
C 17.796875 63.421875 13.703125 57.921875 9.90625 48.09375 
C 7.296875 41.375 6 34.265625 6 26.65625 
C 6 15.9375 8.5 5.8125 13.296875 -3.203125 
C 16.796875 -9.921875 20 -13.828125 28.203125 -21.546875 
z
" id="URW_Palladio_L_Roman-40"/>
       <path d="M 2.296875 66.5 
L 7.90625 66.5 
C 9.703125 66.5 10.40625 65.390625 10.40625 62.375 
L 10.40625 10.171875 
C 10.40625 3.8125 10.09375 3.109375 6.703125 3.109375 
L 2.09375 3.109375 
L 2.09375 0 
C 12.09375 0 12.09375 0 14.59375 0 
C 17.09375 0 17.09375 0 27.09375 0 
L 27.09375 3.109375 
L 22.5 3.109375 
C 19.09375 3.109375 18.796875 3.8125 18.796875 10.15625 
L 18.796875 72.203125 
L 17.90625 73.015625 
C 13.5 71.3125 10.203125 70.5 2.296875 69.296875 
z
" id="URW_Palladio_L_Roman-108"/>
       <path d="M 32.40625 8.40625 
L 31.90625 -0.015625 
C 38.40625 -0.015625 38.40625 -0.015625 39.703125 -0.015625 
C 40.203125 -0.015625 42.703125 -0.015625 47.09375 -0.015625 
L 47.09375 3 
L 43.203125 3 
C 40.796875 3 40.40625 3.8125 40.40625 8.71875 
L 40.40625 27.046875 
C 40.40625 41.6875 36.203125 47 24.59375 47 
C 20.296875 47 16.296875 45.890625 12.5 43.609375 
L 7.203125 40.390625 
L 7.203125 33.921875 
L 9.796875 33.21875 
L 11.09375 36.296875 
C 13.203125 40.984375 14.203125 41.6875 18.796875 41.6875 
C 28.203125 41.6875 32.09375 37.984375 32.40625 28.9375 
L 22.5 27.125 
C 8.90625 24.640625 3.203125 19.953125 3.203125 11.28125 
C 3.203125 3.5 7.90625 -1 15.796875 -1 
C 17.59375 -1 19.296875 -0.703125 20 -0.203125 
z
M 32.40625 12.59375 
C 29.5 8.5 23.203125 4.71875 19.296875 4.71875 
C 15.296875 4.71875 11.796875 8.40625 11.796875 12.6875 
C 11.796875 16.375 13.796875 19.859375 16.796875 21.75 
C 19.296875 23.25 24.796875 24.640625 32.40625 25.75 
z
" id="URW_Palladio_L_Roman-97"/>
       <path d="M 2.296875 40.078125 
L 6 40.078125 
C 10 40.078125 10.40625 39.375 10.40625 32.71875 
L 10.40625 10.046875 
C 10.40625 3.703125 10.09375 3 6.703125 3 
L 2.09375 3 
L 2.09375 -0.109375 
C 9.296875 -0.109375 11.90625 -0.109375 14.40625 -0.109375 
C 16.40625 -0.109375 16.40625 -0.109375 28.703125 -0.109375 
L 28.703125 3 
L 23.5 3 
C 19 3 18.796875 3.296875 18.796875 9.96875 
L 18.796875 27.359375 
C 18.796875 33.421875 22.796875 38.484375 27.703125 38.484375 
C 30.703125 38.484375 32.796875 37.078125 34.40625 33.890625 
L 36.5 33.890625 
L 37.40625 45.890625 
C 36.296875 46.59375 34.5 47 32.703125 47 
C 29.703125 47 26.5 45.390625 24.40625 42.890625 
L 18.796875 36.28125 
L 18.796875 46.59375 
L 17.90625 47 
C 12.796875 44.890625 7.59375 43.484375 2.296875 42.890625 
z
" id="URW_Palladio_L_Roman-114"/>
       <path d="M 51.90625 38 
L 54.40625 42.109375 
L 54 43.109375 
L 39.796875 43.109375 
C 36.09375 45.890625 32.5 47 27.59375 47 
C 23.203125 47 18.09375 45.625 14 43.25 
C 8.40625 40.109375 5.5 35.28125 5.5 29.28125 
C 5.5 22 10.09375 16.984375 17.5 16.1875 
L 9.59375 10 
C 8.59375 8.484375 8.09375 7.171875 8.09375 5.640625 
C 8.09375 2.8125 9.90625 1.1875 14.703125 -0.21875 
L 6 -4.9375 
C 4.59375 -5.734375 3.203125 -9.4375 3.203125 -12.546875 
C 3.203125 -21.6875 12.09375 -28 24.796875 -28 
C 39.90625 -28 51.796875 -18.46875 51.796875 -6.234375 
C 51.796875 0.984375 47 6 40 6 
L 24 6 
C 18.796875 6 16.40625 7.21875 16.40625 9.984375 
C 16.40625 11.3125 17.203125 12.421875 19.796875 14.671875 
C 20.40625 15.1875 20.59375 15.390625 21 15.796875 
C 22 15.6875 22.59375 15.59375 23.40625 15.59375 
C 27.703125 15.59375 33 17.46875 37.09375 20.3125 
C 41.59375 23.546875 43.796875 27.484375 43.796875 32.703125 
C 43.796875 34.65625 43.5 35.9375 42.703125 38 
z
M 24 43.59375 
C 30.796875 43.59375 35.40625 38.09375 35.40625 29.765625 
C 35.40625 23.421875 31.203125 19 25.09375 19 
C 18.40625 19 13.90625 24.09375 13.90625 31.640625 
C 13.90625 39.171875 17.59375 43.59375 24 43.59375 
z
M 28.703125 -1.015625 
C 40 -1.015625 43.90625 -3.3125 43.90625 -9.84375 
C 43.90625 -18.46875 36 -24.890625 25.5 -24.890625 
C 16.796875 -24.890625 10.796875 -19.78125 10.796875 -12.34375 
C 10.796875 -7.84375 13.40625 -3.71875 17.40625 -2.015625 
C 19 -1.21875 21.796875 -1.015625 28.703125 -1.015625 
z
" id="URW_Palladio_L_Roman-103"/>
       <path d="M 18.796875 46.765625 
L 17.90625 47.171875 
C 12.796875 45.0625 7.59375 43.640625 2.296875 43.046875 
L 2.296875 40.25 
L 6 40.25 
C 10 40.25 10.40625 39.546875 10.40625 32.890625 
L 10.40625 10.171875 
C 10.40625 3.8125 10.09375 3.109375 6.703125 3.109375 
L 2.09375 3.109375 
L 2.09375 0 
C 12.09375 0 12.09375 0 14.59375 0 
C 17.09375 0 17.09375 0 27.09375 0 
L 27.09375 3.109375 
L 22.5 3.109375 
C 19.09375 3.109375 18.796875 3.8125 18.796875 10.171875 
z
M 14.203125 69 
C 11.203125 69 8.59375 66.390625 8.59375 63.375 
C 8.59375 60.46875 11.203125 57.875 14.09375 57.875 
C 17 57.875 19.703125 60.46875 19.703125 63.375 
C 19.703125 66.1875 17 69 14.203125 69 
z
" id="URW_Palladio_L_Roman-105"/>
       <path d="M 4.09375 14.328125 
C 4.09375 7.421875 3.796875 4.40625 3 0.40625 
C 8.203125 -1.296875 12.09375 -2 16.703125 -2 
C 29.796875 -2 39.09375 5.015625 39.09375 14.828125 
C 39.09375 17.9375 38.203125 20.234375 36.296875 22.25 
C 33.703125 24.75 30.40625 25.953125 21.59375 27.65625 
C 13.40625 29.265625 10.703125 31.265625 10.703125 35.875 
C 10.703125 40.875 14.203125 43.6875 20.296875 43.6875 
C 27 43.6875 32.09375 40.1875 32.09375 35.46875 
L 32.09375 33.171875 
L 34.90625 33.171875 
C 35 38.984375 35.09375 41.375 35.40625 44.484375 
C 30.09375 46.296875 26.5 47 22.40625 47 
C 10.796875 47 3.703125 41.484375 3.703125 32.46875 
C 3.703125 27.65625 5.90625 24.25 10.5 22.140625 
C 13.203125 20.9375 18.5 19.34375 25.296875 17.828125 
C 29.796875 16.828125 31.703125 14.734375 31.703125 10.921875 
C 31.703125 5.515625 26.703125 1.703125 19.59375 1.703125 
C 12.296875 1.703125 7.09375 5.203125 7.09375 10.21875 
L 7.09375 14.328125 
z
" id="URW_Palladio_L_Roman-115"/>
       <path d="M 15 72.1875 
L 14.09375 73 
C 9.703125 71.296875 6.40625 70.484375 -1.5 69.28125 
L -1.5 66.484375 
L 4.09375 66.484375 
C 5.90625 66.484375 6.59375 65.375 6.59375 62.359375 
L 6.59375 15.453125 
C 6.59375 9.234375 6.5 6.5 5.796875 -0.515625 
L 7.40625 -1.109375 
L 11.40625 2.5 
C 15.40625 -0.109375 19 -1.109375 24.296875 -1.109375 
C 28.203125 -1.109375 30.796875 -0.40625 32.90625 1.09375 
L 42.90625 8.296875 
C 47.296875 11.484375 50.796875 19.78125 50.796875 27.078125 
C 50.796875 38.6875 43.296875 47 32.703125 47 
C 28 47 23.09375 45.1875 20.5 42.578125 
L 15 36.984375 
z
M 15 30.890625 
C 15 32.28125 16 34.078125 17.59375 35.890625 
C 20.40625 38.78125 24.296875 40.484375 28.40625 40.484375 
C 36.796875 40.484375 42.09375 33.6875 42.09375 23 
C 42.09375 11.796875 36.09375 4 27.59375 4 
C 22.40625 4 15 7.1875 15 9.390625 
z
" id="URW_Palladio_L_Roman-98"/>
       <path d="M 9.796875 38.6875 
L 9.796875 9.671875 
C 9.796875 2.21875 13.09375 -1 20.796875 -1 
C 23.09375 -1 25.5 -0.5 26.09375 0.203125 
L 30.90625 5.515625 
L 29.59375 7.234375 
C 27.09375 5.8125 25.59375 5.3125 23.703125 5.3125 
C 19.796875 5.3125 18.203125 7.34375 18.203125 12.3125 
L 18.203125 38.890625 
L 31 38.890625 
L 31.90625 44 
L 18.203125 44 
L 18.203125 47.75 
C 18.203125 51.890625 18.5 55.421875 19.296875 61.734375 
L 18.09375 62.828125 
C 15.703125 61.328125 12.703125 60.03125 9.59375 59.03125 
C 9.90625 56.015625 10 54.109375 10 51.109375 
L 10 44.09375 
L 2.203125 40.59375 
L 2.203125 38.6875 
z
" id="URW_Palladio_L_Roman-116"/>
       <path d="M 5.09375 -21.546875 
C 12 -15.03125 14.90625 -11.71875 18 -6.8125 
C 24.09375 2.90625 27.296875 14.53125 27.296875 26.546875 
C 27.296875 34.265625 26 41.375 23.40625 48.09375 
C 19.59375 57.8125 15.5 63.328125 5.09375 72.75 
L 3.203125 70.140625 
C 10.5 61.515625 13.203125 56.8125 15.703125 48.59375 
C 17.703125 42.078125 18.703125 34.96875 18.703125 26.65625 
C 18.703125 18.140625 17.703125 10.515625 15.59375 3.3125 
C 13 -5.71875 10.40625 -10.515625 3.203125 -19.4375 
z
" id="URW_Palladio_L_Roman-41"/>
      </defs>
      <use transform="scale(0.996264)" xlink:href="#URW_Palladio_L_Roman-83"/>
      <use transform="translate(52.303815 0)scale(0.996264)" xlink:href="#URW_Palladio_L_Roman-112"/>
      <use transform="translate(112.178209 0)scale(0.996264)" xlink:href="#URW_Palladio_L_Roman-101"/>
      <use transform="translate(159.898504 0)scale(0.996264)" xlink:href="#URW_Palladio_L_Roman-101"/>
      <use transform="translate(207.618799 0)scale(0.996264)" xlink:href="#URW_Palladio_L_Roman-100"/>
      <use transform="translate(268.49043 0)scale(0.996264)" xlink:href="#URW_Palladio_L_Roman-117"/>
      <use transform="translate(328.564164 0)scale(0.996264)" xlink:href="#URW_Palladio_L_Roman-112"/>
      <use transform="translate(413.345158 0)scale(0.996264)" xlink:href="#URW_Palladio_L_Roman-40"/>
      <use transform="translate(446.520388 0)scale(0.996264)" xlink:href="#URW_Palladio_L_Roman-108"/>
      <use transform="translate(475.510749 0)scale(0.996264)" xlink:href="#URW_Palladio_L_Roman-97"/>
      <use transform="translate(525.32395 0)scale(0.996264)" xlink:href="#URW_Palladio_L_Roman-114"/>
      <use transform="translate(562.883267 0)scale(0.996264)" xlink:href="#URW_Palladio_L_Roman-103"/>
      <use transform="translate(618.274944 0)scale(0.996264)" xlink:href="#URW_Palladio_L_Roman-101"/>
      <use transform="translate(665.995239 0)scale(0.996264)" xlink:href="#URW_Palladio_L_Roman-114"/>
      <use transform="translate(730.253736 0)scale(0.996264)" xlink:href="#URW_Palladio_L_Roman-105"/>
      <use transform="translate(759.244097 0)scale(0.996264)" xlink:href="#URW_Palladio_L_Roman-115"/>
      <use transform="translate(826.392164 0)scale(0.996264)" xlink:href="#URW_Palladio_L_Roman-98"/>
      <use transform="translate(881.484564 0)scale(0.996264)" xlink:href="#URW_Palladio_L_Roman-101"/>
      <use transform="translate(929.204859 0)scale(0.996264)" xlink:href="#URW_Palladio_L_Roman-116"/>
      <use transform="translate(961.681946 0)scale(0.996264)" xlink:href="#URW_Palladio_L_Roman-116"/>
      <use transform="translate(994.159034 0)scale(0.996264)" xlink:href="#URW_Palladio_L_Roman-101"/>
      <use transform="translate(1041.879329 0)scale(0.996264)" xlink:href="#URW_Palladio_L_Roman-114"/>
      <use transform="translate(1081.231226 0)scale(0.996264)" xlink:href="#URW_Palladio_L_Roman-41"/>
     </g>
    </g>
   </g>
   <g id="matplotlib.axis_2">
    <g id="ytick_1">
     <g id="line2d_10">
      <defs>
       <path d="M 0 0 
L -3.5 0 
" id="med66ff877a" style="stroke:#000000;stroke-width:0.8;"/>
      </defs>
      <g>
       <use style="stroke:#000000;stroke-width:0.8;" x="90.297665" xlink:href="#med66ff877a" y="281.882904"/>
      </g>
     </g>
     <g id="text_11">
      <!-- PHP 7  -->
      <g transform="translate(55.502118 280.478198)scale(0.1 -0.1)">
       <defs>
        <path d="M 21.59375 64.3125 
C 25.09375 65.09375 28 65.5 31.40625 65.5 
C 42.203125 65.5 48 60.546875 48 51.140625 
C 48 42.234375 41.90625 36 33.203125 36 
C 31.09375 36 29.59375 36.203125 27 36.984375 
L 28 33.390625 
C 30.40625 32.890625 31.796875 32.796875 33.796875 32.796875 
C 47.5 32.796875 58 42.0625 58 54.046875 
C 58 63.609375 50.203125 69.5 37.5 69.5 
C 37 69.5 36 69.5 34.703125 69.109375 
C 31 69.109375 23.40625 69.109375 20.5 69.109375 
C 18.296875 69.109375 18.296875 69.109375 2.296875 69.109375 
L 2.296875 66 
L 6.796875 66 
C 11.296875 66 12.09375 64.6875 12.09375 57.234375 
L 12.09375 11.96875 
C 12.09375 4 11.59375 3.203125 7 3.203125 
L 2.203125 3.203125 
L 2.203125 0 
C 8.09375 0 11.59375 0 16.796875 0 
C 22 0 25.59375 0 31.5 0 
L 31.5 3.203125 
L 26.703125 3.203125 
C 22.09375 3.203125 21.59375 4 21.59375 11.9375 
z
" id="URW_Palladio_L_Roman-80"/>
        <path d="M 61.59375 12.078125 
C 61.59375 4.015625 61.09375 3.203125 56.5 3.203125 
L 51.703125 3.203125 
L 51.703125 0 
C 57.59375 0 61.09375 0 66.296875 0 
C 71.5 0 75.09375 0 81 0 
L 81 3.203125 
L 76.203125 3.203125 
C 71.59375 3.203125 71.09375 4 71.09375 11.96875 
L 71.09375 57.234375 
C 71.09375 65.1875 71.59375 66 76.203125 66 
L 81 66 
L 81 69.109375 
C 73.703125 69.109375 71.5 69.109375 66.296875 69.109375 
C 61.296875 69.109375 58.90625 69.109375 51.703125 69.109375 
L 51.703125 66 
L 56.5 66 
C 61.09375 66 61.59375 65.1875 61.59375 57.3125 
L 61.59375 39.515625 
C 59.5 39.515625 57.40625 39.515625 53.296875 39.515625 
L 29.90625 39.515625 
C 25.796875 39.515625 23.59375 39.515625 21.59375 39.515625 
L 21.59375 57.3125 
C 21.59375 65.1875 22.09375 66 26.703125 66 
L 31.5 66 
L 31.5 69.109375 
C 24.203125 69.109375 22 69.109375 16.796875 69.109375 
C 11.796875 69.109375 9.40625 69.109375 2.203125 69.109375 
L 2.203125 66 
L 7 66 
C 11.59375 66 12.09375 65.1875 12.09375 57.234375 
L 12.09375 11.96875 
C 12.09375 4 11.59375 3.203125 7 3.203125 
L 2.203125 3.203125 
L 2.203125 0 
C 8.09375 0 11.59375 0 16.796875 0 
C 22 0 25.59375 0 31.5 0 
L 31.5 3.203125 
L 26.703125 3.203125 
C 22.09375 3.203125 21.59375 4.015625 21.59375 12.078125 
L 21.59375 34.796875 
C 24.296875 35 25.90625 35 29.90625 35 
L 53.296875 35 
C 57.296875 35 58.90625 35 61.59375 34.796875 
z
" id="URW_Palladio_L_Roman-72"/>
       </defs>
       <use transform="scale(0.996264)" xlink:href="#URW_Palladio_L_Roman-80"/>
       <use transform="translate(60.173595 0)scale(0.996264)" xlink:href="#URW_Palladio_L_Roman-72"/>
       <use transform="translate(143.062256 0)scale(0.996264)" xlink:href="#URW_Palladio_L_Roman-80"/>
       <use transform="translate(228.142452 0)scale(0.996264)" xlink:href="#URW_Palladio_L_Roman-55"/>
      </g>
      <!-- (baseline) -->
      <g transform="translate(40.80765 291.841494)scale(0.1 -0.1)">
       <defs>
        <path d="M 41 -0.109375 
C 47.09375 -0.109375 47.203125 -0.109375 48.90625 -0.109375 
C 50.296875 -0.109375 50.296875 -0.109375 57.203125 -0.109375 
L 57.203125 2.796875 
L 53.09375 3.203125 
C 49.703125 3.203125 49.40625 3.8125 49.40625 10.21875 
L 49.40625 29.5625 
C 49.40625 41.28125 43.90625 47 32.703125 47 
C 29 47 26.90625 46.296875 24.796875 44.484375 
L 17.203125 37.875 
L 17.203125 46.59375 
L 16.296875 47 
C 11.203125 44.890625 6 43.484375 0.703125 42.890625 
L 0.703125 40.078125 
L 4.40625 40.078125 
C 8.40625 40.078125 8.796875 39.375 8.796875 32.71875 
L 8.796875 10.046875 
C 8.796875 3.703125 8.5 3 5.09375 3 
L 0.59375 3 
L 0.59375 -0.109375 
C 7.40625 -0.109375 10.09375 -0.109375 13 -0.109375 
C 15.90625 -0.109375 18.59375 -0.109375 25.40625 -0.109375 
L 25.40625 3 
L 20.90625 3 
C 17.5 3 17.203125 3.703125 17.203125 10.046875 
L 17.203125 31.421875 
C 17.203125 35.9375 23.796875 40.875 29.90625 40.875 
C 36.59375 40.875 41 35.890625 41 28.21875 
z
" id="URW_Palladio_L_Roman-110"/>
       </defs>
       <use transform="scale(0.996264)" xlink:href="#URW_Palladio_L_Roman-40"/>
       <use transform="translate(33.17523 0)scale(0.996264)" xlink:href="#URW_Palladio_L_Roman-98"/>
       <use transform="translate(88.267629 0)scale(0.996264)" xlink:href="#URW_Palladio_L_Roman-97"/>
       <use transform="translate(138.08083 0)scale(0.996264)" xlink:href="#URW_Palladio_L_Roman-115"/>
       <use transform="translate(180.322296 0)scale(0.996264)" xlink:href="#URW_Palladio_L_Roman-101"/>
       <use transform="translate(228.042591 0)scale(0.996264)" xlink:href="#URW_Palladio_L_Roman-108"/>
       <use transform="translate(257.032953 0)scale(0.996264)" xlink:href="#URW_Palladio_L_Roman-105"/>
       <use transform="translate(286.023314 0)scale(0.996264)" xlink:href="#URW_Palladio_L_Roman-110"/>
       <use transform="translate(344.005375 0)scale(0.996264)" xlink:href="#URW_Palladio_L_Roman-101"/>
       <use transform="translate(391.72567 0)scale(0.996264)" xlink:href="#URW_Palladio_L_Roman-41"/>
      </g>
     </g>
    </g>
    <g id="ytick_2">
     <g id="line2d_11">
      <g>
       <use style="stroke:#000000;stroke-width:0.8;" x="90.297665" xlink:href="#med66ff877a" y="258.434181"/>
      </g>
     </g>
     <g id="text_12">
      <!-- PHP 8 Alpha -->
      <g transform="translate(25.594648 261.9983)scale(0.1 -0.1)">
       <defs>
        <path d="M 40.796875 70.5 
L 37.59375 70.5 
C 35.796875 66.171875 34.296875 62.46875 33.703125 60.96875 
L 28.40625 48.8125 
L 10.59375 8.15625 
C 9.40625 5.234375 7.40625 3.421875 5.203125 3.21875 
L 1.5 2.921875 
L 1.5 0 
C 10.796875 0 10.796875 0 12.40625 0 
C 13.703125 0 13.703125 0 24.5 0 
L 24.5 2.921875 
L 20.796875 3.21875 
C 17.296875 3.53125 16 4.21875 16 5.796875 
C 16 7.09375 17.40625 11.359375 19.5 16.34375 
L 22.296875 23 
L 51.09375 23 
L 55.703125 11.453125 
C 57.40625 7.234375 57.796875 5.921875 57.796875 5.03125 
C 57.796875 3.921875 56.203125 3.21875 53.703125 3.015625 
L 49 3.015625 
L 49 0 
C 61.296875 0 61.296875 0 62.90625 0 
C 64.796875 0 64.796875 0 75.59375 0 
L 75.59375 2.921875 
L 72.203125 3.21875 
C 69.59375 3.625 68.5 5.328125 65 13.453125 
z
M 24 27 
L 36.703125 57.078125 
L 49.296875 27 
z
" id="URW_Palladio_L_Roman-65"/>
        <path d="M 0.703125 66.375 
L 6.296875 66.375 
C 8.09375 66.375 8.796875 65.265625 8.796875 62.25 
L 8.796875 10.046875 
C 8.796875 3.703125 8.5 3 5.09375 3 
L 0.59375 3 
L 0.59375 -0.109375 
C 7.40625 -0.109375 10.09375 -0.109375 13 -0.109375 
C 15.90625 -0.109375 18.59375 -0.109375 25.40625 -0.109375 
L 25.40625 3 
L 20.90625 3 
C 17.5 3 17.203125 3.703125 17.203125 10.046875 
L 17.203125 31.421875 
C 17.203125 35.9375 23.796875 40.875 29.90625 40.875 
C 36.59375 40.875 41 35.890625 41 28.21875 
L 41 -0.109375 
C 47.09375 -0.109375 47.203125 -0.109375 48.90625 -0.109375 
C 50.296875 -0.109375 50.296875 -0.109375 57.203125 -0.109375 
L 57.203125 2.796875 
L 53.09375 3.203125 
C 49.703125 3.203125 49.40625 3.8125 49.40625 10.21875 
L 49.40625 29.5625 
C 49.40625 41.28125 43.90625 47 32.703125 47 
C 29 47 26.90625 46.296875 24.796875 44.484375 
L 17.203125 37.875 
L 17.203125 72.078125 
L 16.296875 72.890625 
C 11.90625 71.1875 8.59375 70.375 0.703125 69.171875 
z
" id="URW_Palladio_L_Roman-104"/>
       </defs>
       <use transform="scale(0.996264)" xlink:href="#URW_Palladio_L_Roman-80"/>
       <use transform="translate(60.173595 0)scale(0.996264)" xlink:href="#URW_Palladio_L_Roman-72"/>
       <use transform="translate(143.062256 0)scale(0.996264)" xlink:href="#URW_Palladio_L_Roman-80"/>
       <use transform="translate(228.142452 0)scale(0.996264)" xlink:href="#URW_Palladio_L_Roman-56"/>
       <use transform="translate(302.862252 0)scale(0.996264)" xlink:href="#URW_Palladio_L_Roman-65"/>
       <use transform="translate(380.370622 0)scale(0.996264)" xlink:href="#URW_Palladio_L_Roman-108"/>
       <use transform="translate(409.360984 0)scale(0.996264)" xlink:href="#URW_Palladio_L_Roman-112"/>
       <use transform="translate(469.235378 0)scale(0.996264)" xlink:href="#URW_Palladio_L_Roman-104"/>
       <use transform="translate(527.217438 0)scale(0.996264)" xlink:href="#URW_Palladio_L_Roman-97"/>
      </g>
     </g>
    </g>
    <g id="ytick_3">
     <g id="line2d_12">
      <g>
       <use style="stroke:#000000;stroke-width:0.8;" x="90.297665" xlink:href="#med66ff877a" y="234.985458"/>
      </g>
     </g>
     <g id="text_13">
      <!-- JPHP -->
      <g transform="translate(59.656583 238.549577)scale(0.1 -0.1)">
       <defs>
        <path d="M -1 -19.203125 
L 0.703125 -19.40625 
L 1.40625 -19.5 
C 4.796875 -20.015625 11.09375 -16.28125 15 -11.375 
C 19.90625 -5.34375 21.203125 -0.328125 21.203125 11.828125 
L 21.203125 57.25 
C 21.203125 65.1875 21.703125 66 26.296875 66 
L 31.09375 66 
L 31.09375 69.109375 
C 23.796875 69.109375 21.59375 69.109375 16.40625 69.109375 
C 11.40625 69.109375 9 69.109375 1.796875 69.109375 
L 1.796875 66 
L 6.59375 66 
C 11.203125 66 11.703125 65.1875 11.703125 57.25 
L 11.703125 -1.640625 
C 11.703125 -10.078125 10.296875 -13 6.296875 -13 
C 3.90625 -13 1.90625 -12.390625 -0.40625 -11 
L -1.5 -11.59375 
z
" id="URW_Palladio_L_Roman-74"/>
       </defs>
       <use transform="scale(0.996264)" xlink:href="#URW_Palladio_L_Roman-74"/>
       <use transform="translate(33.17523 0)scale(0.996264)" xlink:href="#URW_Palladio_L_Roman-80"/>
       <use transform="translate(93.348825 0)scale(0.996264)" xlink:href="#URW_Palladio_L_Roman-72"/>
       <use transform="translate(176.237486 0)scale(0.996264)" xlink:href="#URW_Palladio_L_Roman-80"/>
      </g>
     </g>
    </g>
    <g id="ytick_4">
     <g id="line2d_13">
      <g>
       <use style="stroke:#000000;stroke-width:0.8;" x="90.297665" xlink:href="#med66ff877a" y="211.536735"/>
      </g>
     </g>
     <g id="text_14">
      <!-- HHVM -->
      <g transform="translate(50.102323 215.100854)scale(0.1 -0.1)">
       <defs>
        <path d="M 27.40625 66 
L 27.40625 69.015625 
C 16.40625 69.015625 16.40625 69.015625 14.09375 69.015625 
C 11.796875 69.015625 11.796875 69.015625 0.796875 69.015625 
L 0.796875 66.203125 
L 4.40625 65.90625 
C 6.5 65.703125 7.5 64.796875 8.796875 61.796875 
L 27.59375 15.53125 
C 30.703125 7.921875 31.90625 4.421875 33.40625 -1 
L 38.40625 -1 
C 40.296875 5.21875 41.5 8.515625 44.796875 16.53125 
L 62.203125 58.6875 
C 64.5 64.109375 65.59375 65.609375 67.59375 65.90625 
L 70.59375 66.203125 
L 70.59375 69.015625 
L 59.796875 69.015625 
C 58 69.015625 55.703125 69.015625 52.796875 69.015625 
C 52.296875 69.015625 50.59375 69.015625 49 69.015625 
L 49 66 
L 54.203125 66 
C 56.40625 66 57.703125 64.984375 57.703125 63.46875 
C 57.703125 62.46875 57.40625 61.0625 56.796875 59.5625 
L 38.5 12.015625 
L 18.796875 62.96875 
C 18.703125 63.375 18.59375 63.6875 18.59375 64.09375 
C 18.59375 65.296875 19.796875 66 21.796875 66 
z
" id="URW_Palladio_L_Roman-86"/>
        <path d="M 73.203125 12.234375 
C 73.203125 4.3125 72.796875 3.609375 68.09375 3.203125 
L 64.703125 2.90625 
L 64.703125 0 
C 69.296875 0 72.296875 0 77.5 0 
C 83.09375 0 86.703125 0 92.59375 0 
L 92.59375 3.203125 
L 87.796875 3.203125 
C 83.203125 3.203125 82.703125 4 82.703125 11.96875 
L 82.703125 57.234375 
C 82.703125 65.09375 83.203125 66 87.796875 66 
L 92 66.5 
L 92 69.3125 
C 84.40625 69.3125 84.40625 69.3125 82.703125 69.3125 
C 81.203125 69.3125 81.203125 69.3125 73.203125 69.3125 
L 47 13.8125 
L 20.59375 69.3125 
C 12.59375 69.3125 12.59375 69.3125 11.09375 69.3125 
C 9.59375 69.3125 9.59375 69.3125 1.59375 69.3125 
L 1.59375 66.203125 
L 6 66.203125 
C 10.59375 66.203125 11.09375 65.28125 11.09375 57.40625 
L 11.09375 12 
C 11.09375 4.109375 10.59375 3.203125 6 3.203125 
L 1.59375 3.203125 
L 1.59375 0 
C 11.5 0 11.5 0 13.203125 0 
C 14.703125 0 14.703125 0 25.203125 0 
L 25.203125 3.203125 
L 20.796875 3.203125 
C 16.203125 3.203125 15.703125 4.09375 15.703125 11.96875 
L 15.703125 58.09375 
L 43.59375 -1 
L 45.59375 -1 
C 46.296875 0.5 46.90625 2.09375 47.5 3.59375 
C 49.09375 7.5 50.296875 10.28125 51 11.6875 
L 68.796875 49.484375 
C 70.203125 52.390625 71.40625 54.6875 73.203125 58.09375 
z
" id="URW_Palladio_L_Roman-77"/>
       </defs>
       <use transform="scale(0.996264)" xlink:href="#URW_Palladio_L_Roman-72"/>
       <use transform="translate(82.888661 0)scale(0.996264)" xlink:href="#URW_Palladio_L_Roman-72"/>
       <use transform="translate(165.777322 0)scale(0.996264)" xlink:href="#URW_Palladio_L_Roman-86"/>
       <use transform="translate(237.707307 0)scale(0.996264)" xlink:href="#URW_Palladio_L_Roman-77"/>
      </g>
     </g>
    </g>
    <g id="ytick_5">
     <g id="line2d_14">
      <g>
       <use style="stroke:#000000;stroke-width:0.8;" x="90.297665" xlink:href="#med66ff877a" y="188.088012"/>
      </g>
     </g>
     <g id="text_15">
      <!-- \textbf{graalphp-native} -->
      <g transform="translate(10.8 191.652131)scale(0.1 -0.1)">
       <defs>
        <path d="M 52.90625 37 
L 53.40625 43.171875 
C 49.296875 42.6875 47.40625 42.6875 45.203125 42.6875 
C 44.40625 42.6875 43.203125 42.6875 41.59375 42.6875 
C 37.5 45.6875 32.796875 47 26.40625 47 
C 13.59375 47 4.703125 39.609375 4.703125 29.109375 
C 4.703125 25.40625 6 22.109375 8.40625 19.515625 
C 10.296875 17.5 11.796875 16.609375 15.296875 15.40625 
L 8.203125 10.03125 
C 7.203125 9.328125 6.5 7.25 6.5 5.265625 
C 6.5 1.6875 8.296875 -0.09375 13.296875 -1.390625 
L 5.203125 -6.265625 
C 3.703125 -7.171875 2.59375 -9.828125 2.59375 -12.5625 
C 2.59375 -21.40625 11 -26.984375 24.203125 -26.984375 
C 41.703125 -26.984375 53.5 -17.84375 53.5 -4.46875 
C 53.5 3.96875 48.796875 8 38.703125 8 
L 36.296875 8 
C 26.40625 8 22.796875 8 21.703125 8 
C 18.59375 8 17 8.953125 17 10.84375 
C 17 12.25 17.90625 13.375 19.90625 14.515625 
C 21.703125 14.515625 22.703125 14.515625 23.90625 14.515625 
C 30.796875 14.515625 37.203125 16.796875 41.296875 20.859375 
C 44.40625 23.921875 45.703125 27.390625 45.703125 32.34375 
C 45.703125 33.9375 45.59375 35.125 45.203125 37 
z
M 25.203125 42.015625 
C 30.5 42.015625 33.40625 37.703125 33.40625 29.8125 
C 33.40625 22.703125 30.703125 19 25.40625 19 
C 20.203125 19 17 23.5 17 31 
C 17 38.203125 19.796875 42.015625 25.203125 42.015625 
z
M 27.203125 -1.484375 
C 39.40625 -1.484375 42.40625 -3.109375 42.40625 -9.65625 
C 42.40625 -16.703125 35.703125 -22 26.796875 -22 
C 17.90625 -22 12 -17.703125 12 -11.375 
C 12 -7.609375 14.09375 -4.140625 17.09375 -2.609375 
C 18.703125 -1.890625 22.296875 -1.484375 27.203125 -1.484375 
z
" id="URW_Palladio_L_Bold-103"/>
        <path d="M 21.296875 47 
L 14.296875 44.8125 
C 11.09375 43.8125 9.296875 43.515625 3 42.71875 
L 3 38.921875 
L 7.5 38.921875 
C 9.796875 38.71875 10.09375 37.8125 10.09375 31.921875 
L 10.09375 10 
C 10.09375 4.59375 9.59375 3.796875 6.5 3.796875 
L 3 3.796875 
L 3 0 
L 15.90625 0 
C 17.203125 0 17.5 0 31 0 
L 31 3.796875 
L 27.09375 3.796875 
C 22.796875 3.796875 22.296875 4.390625 22.296875 9.984375 
L 22.296875 29.734375 
C 22.296875 32.828125 26.40625 36.125 30.296875 36.125 
C 32.796875 36.125 34.59375 34.953125 36 32.5625 
L 38.40625 33.546875 
L 38.90625 46.40625 
C 37.90625 46.8125 36.59375 47 35.203125 47 
C 32.40625 47 30.5 45.8125 26.703125 41.71875 
L 22.296875 36.921875 
L 22.296875 46.40625 
z
" id="URW_Palladio_L_Bold-114"/>
        <path d="M 29.90625 6.703125 
L 29.40625 0.515625 
L 29.90625 -0.28125 
C 36.09375 -0.28125 37.796875 -0.28125 39 -0.28125 
C 40.203125 -0.28125 41.796875 -0.28125 47.796875 -0.28125 
L 47.796875 3.3125 
L 44.796875 3.609375 
C 42.59375 4.015625 42.09375 5.015625 42 9.71875 
L 42 11.8125 
C 41.90625 15.015625 41.796875 17.8125 41.796875 20.234375 
C 41.796875 22.921875 41.90625 26.109375 42 29.921875 
C 42.09375 31.21875 42.09375 32.125 42.09375 32.8125 
C 42.09375 41.71875 36.09375 47 26 47 
C 21.796875 47 17.703125 45.90625 14 43.609375 
L 8.703125 40.421875 
L 8.703125 33.515625 
L 11.703125 32.8125 
L 13.90625 37.828125 
C 14.203125 38.515625 17 39.21875 19.703125 39.21875 
C 26.40625 39.21875 29.59375 35.625 29.90625 27.421875 
L 21.09375 25.640625 
C 8.5 23.015625 4 19.125 4 10.625 
C 4 2.53125 8.09375 -1.78125 15.703125 -1.78125 
C 17.90625 -1.78125 19.59375 -1.34375 20.59375 -0.5 
z
M 29.90625 11.421875 
C 28 8.8125 24.296875 6.921875 21.296875 6.921875 
C 18.09375 6.921875 16.203125 9.3125 16.203125 13.234375 
C 16.203125 18.109375 18.296875 20.125 25.40625 22.03125 
L 29.90625 23.21875 
z
" id="URW_Palladio_L_Bold-97"/>
        <path d="M 21.703125 72.09375 
L 14.5 69.890625 
C 11.59375 69 8.203125 68.390625 2.40625 67.796875 
L 2.40625 64 
L 7.703125 64 
C 9.90625 64 10.296875 63 10.296875 57.0625 
L 10.296875 10.03125 
C 10.296875 4.59375 9.796875 3.796875 6.703125 3.796875 
L 3.203125 3.796875 
L 3.203125 0 
L 16.09375 0 
C 18.09375 0 22.90625 0 29.59375 0 
L 29.59375 3.796875 
L 26.09375 3.796875 
C 23 3.796875 22.5 4.59375 22.5 10 
L 22.5 71.484375 
z
" id="URW_Palladio_L_Bold-108"/>
        <path d="M 21.203125 47 
L 14.203125 44.8125 
C 10.796875 43.8125 9.09375 43.515625 4 42.8125 
L 2.90625 42.71875 
L 2.90625 38.921875 
L 7.40625 38.921875 
C 9.703125 38.71875 10 37.796875 10 31.890625 
L 10 -15.765625 
C 10 -21.203125 9.5 -22 6.40625 -22 
L 2.90625 -22 
L 2.90625 -25.796875 
L 15.796875 -25.796875 
C 17.09375 -25.796875 17.296875 -25.796875 30.296875 -25.796875 
L 30.296875 -22 
L 25.796875 -22 
C 22.703125 -22 22.203125 -21.109375 22.203125 -15.671875 
L 22.203125 -0.09375 
C 27.09375 -1.484375 28.703125 -1.796875 31.09375 -1.796875 
C 34.5 -1.796875 38 0 44.796875 5.40625 
C 45.40625 5.8125 46 6.3125 46.5 6.703125 
C 53.09375 11.71875 56.703125 19.515625 56.703125 28.515625 
C 56.703125 39.109375 49 47 38.59375 47 
C 34.703125 47 31.796875 45.90625 28.296875 43.109375 
L 22.203125 38.234375 
L 22.203125 46.40625 
z
M 22.203125 33.03125 
C 24.40625 36.328125 27.703125 38.03125 31.796875 38.03125 
C 39.5 38.03125 44.09375 32.015625 44.09375 22.015625 
C 44.09375 11.59375 39.59375 5 32.296875 5 
C 28.09375 5 24.90625 6.6875 22.203125 10.5 
z
" id="URW_Palladio_L_Bold-112"/>
        <path d="M 20.90625 72.015625 
L 13.703125 69.8125 
C 11.09375 69.015625 7.796875 68.421875 2.40625 67.71875 
L 2.40625 63.921875 
L 6.90625 63.921875 
C 9.203125 63.71875 9.5 62.828125 9.5 56.90625 
L 9.5 10.015625 
C 9.5 4.59375 9 3.796875 5.90625 3.796875 
L 2.40625 3.796875 
L 2.40625 0 
L 15.296875 0 
C 17.296875 0 22.09375 0 28.796875 0 
L 28.796875 3.796875 
L 25.296875 3.796875 
C 22.203125 3.796875 21.703125 4.59375 21.703125 9.984375 
L 21.703125 31.640625 
C 21.703125 35.125 25.796875 38.421875 30.203125 38.421875 
C 36.796875 38.421875 39.59375 34.96875 39.59375 26.9375 
L 39.59375 0 
C 45.296875 0 47 0 48.59375 0 
C 50 0 50 0 58.703125 0 
L 58.703125 3.796875 
L 55.40625 3.796875 
C 52.296875 3.796875 51.796875 4.59375 51.796875 9.984375 
L 51.796875 28.546875 
C 51.796875 36.234375 50.90625 40.015625 48.296875 42.8125 
C 45.703125 45.515625 41.59375 47 36.703125 47 
C 33.703125 47 31.296875 46.40625 29.703125 45.109375 
L 21.703125 38.921875 
L 21.703125 71.40625 
z
" id="URW_Palladio_L_Bold-104"/>
        <path d="M 5 29.96875 
C 4.5 28.171875 4.296875 27.578125 3.09375 24.078125 
C 2.40625 22.1875 2.09375 21.28125 1.59375 19.796875 
L 2.40625 19 
L 28.5 19 
C 29 21.78125 30.09375 25.375 31.703125 28.96875 
L 30.796875 29.96875 
z
" id="URW_Palladio_L_Bold-45"/>
        <path d="M 2.40625 39 
L 6.90625 39 
C 9.203125 38.796875 9.5 37.890625 9.5 31.984375 
L 9.5 10.015625 
C 9.5 4.59375 9 3.796875 5.90625 3.796875 
L 2.40625 3.796875 
L 2.40625 0 
L 15.296875 0 
C 17.296875 0 22.09375 0 28.796875 0 
L 28.796875 3.796875 
L 25.296875 3.796875 
C 22.203125 3.796875 21.703125 4.59375 21.703125 9.984375 
L 21.703125 31.640625 
C 21.703125 35.125 25.796875 38.421875 30.203125 38.421875 
C 36.796875 38.421875 39.59375 34.96875 39.59375 27.046875 
L 39.59375 0 
C 45.296875 0 47 0 48.59375 0 
C 50 0 50 0 58.703125 0 
L 58.703125 3.796875 
L 55.40625 3.796875 
C 52.296875 3.796875 51.796875 4.59375 51.796875 9.984375 
L 51.796875 28.546875 
C 51.796875 36.234375 50.90625 40.015625 48.296875 42.8125 
C 45.703125 45.515625 41.59375 47 36.703125 47 
C 33.703125 47 31.296875 46.40625 29.703125 45.125 
L 21.703125 39 
L 21.703125 46.40625 
L 21.09375 47 
C 10.703125 43.5 7.90625 42.890625 2.40625 42.890625 
z
" id="URW_Palladio_L_Bold-110"/>
        <path d="M 32.40625 5.703125 
L 31.59375 7.609375 
C 29.59375 6.59375 28.59375 6.296875 27 6.296875 
C 22.296875 6.296875 20.796875 7.90625 20.796875 12.84375 
L 20.796875 36.8125 
L 31.40625 36.8125 
L 32.203125 43 
L 20.796875 43 
L 20.796875 48.6875 
C 20.796875 53.90625 21.09375 57.15625 22 62.0625 
L 20.59375 63.0625 
C 16.59375 61.15625 13.5 59.96875 8.40625 58.0625 
C 8.703125 52.875 8.796875 50.984375 8.796875 48.890625 
L 8.796875 42.90625 
L 2.203125 38.609375 
L 2.203125 36.8125 
L 8.59375 36.8125 
L 8.59375 10.78125 
C 8.59375 1.828125 12.296875 -2 21 -2 
C 24.09375 -2 26.59375 -1.296875 27.5 -0.203125 
z
" id="URW_Palladio_L_Bold-116"/>
        <path d="M 21.703125 47.46875 
L 14.703125 45.21875 
C 11.5 44.1875 9.09375 43.765625 4.90625 43.265625 
C 4.59375 43.265625 4.09375 43.15625 3.40625 43.0625 
L 3.40625 39.34375 
L 7.90625 39.34375 
C 10.203125 39.140625 10.5 38.21875 10.5 32.25 
L 10.5 10.078125 
C 10.5 4.609375 10 3.796875 6.90625 3.796875 
L 3.40625 3.796875 
L 3.40625 0 
L 16.296875 0 
C 18.296875 0 23.09375 0 29.796875 0 
L 29.796875 3.796875 
L 26.296875 3.796875 
C 23.203125 3.796875 22.703125 4.609375 22.703125 10.046875 
L 22.703125 46.875 
z
M 16.296875 70.96875 
C 12 70.96875 8.703125 67.78125 8.703125 63.59375 
C 8.703125 59.390625 12 56 16.203125 56 
C 20.296875 56 23.703125 59.390625 23.703125 63.484375 
C 23.703125 67.578125 20.40625 70.96875 16.296875 70.96875 
z
" id="URW_Palladio_L_Bold-105"/>
        <path d="M 22.703125 0 
L 31.296875 0 
C 32.90625 4.46875 33.90625 6.953125 35.09375 9.625 
L 47.90625 38.21875 
C 48.796875 40.40625 49.796875 41.296875 51.5 41.59375 
L 54.5 42.09375 
L 54.5 45.6875 
L 44.90625 45.6875 
C 39.796875 45.6875 38.90625 45.6875 35.203125 45.6875 
L 35.203125 42 
L 39 42 
C 40.40625 41.90625 41.296875 41.203125 41.296875 40.3125 
C 41.296875 39.109375 41 37.71875 40.40625 36.234375 
L 34.296875 21.171875 
C 33.40625 18.984375 32.5 16.90625 30.796875 13.203125 
L 22 35.296875 
C 21 37.8125 20.59375 39.296875 20.59375 40.40625 
C 20.59375 41.40625 21.40625 42 22.90625 42 
L 27 42 
L 27 45.6875 
L 14.09375 45.6875 
C 12.796875 45.6875 11.203125 45.6875 1.09375 45.6875 
L 1.09375 42.09375 
L 3.59375 41.890625 
C 5.296875 41.6875 6.59375 40.015625 8.40625 35.734375 
z
" id="URW_Palladio_L_Bold-118"/>
        <path d="M 46.09375 29.25 
C 46.09375 40.046875 38.59375 47 27.203125 47 
C 23.703125 47 21.09375 46.3125 18.40625 44.6875 
L 13.703125 41.890625 
C 7.09375 37.96875 4.203125 31.9375 4.203125 22.40625 
C 4.203125 6.4375 12.203125 -2 27.09375 -2 
C 32.796875 -2 36.5 -1 42.90625 2.296875 
L 45.09375 7.09375 
L 43.90625 8.59375 
C 39.203125 5.984375 36.203125 5.09375 32.203125 5.09375 
C 27 5.09375 22.09375 7.890625 19.59375 12.1875 
C 18 15 17.40625 17.296875 17.203125 22 
L 30.296875 22 
C 36 22 40.5 22.609375 46.09375 24 
z
M 25 27.09375 
L 24.59375 27.09375 
C 24 27.09375 21.296875 27.09375 19.796875 27.09375 
L 16.59375 27.09375 
C 16.90625 37.296875 19.296875 41.421875 25.09375 41.421875 
C 30.796875 41.421875 33.203125 37.296875 33.40625 27.09375 
z
" id="URW_Palladio_L_Bold-101"/>
       </defs>
       <use transform="scale(0.996264)" xlink:href="#URW_Palladio_L_Bold-103"/>
       <use transform="translate(55.391677 0)scale(0.996264)" xlink:href="#URW_Palladio_L_Bold-114"/>
       <use transform="translate(94.145383 0)scale(0.996264)" xlink:href="#URW_Palladio_L_Bold-97"/>
       <use transform="translate(143.958584 0)scale(0.996264)" xlink:href="#URW_Palladio_L_Bold-97"/>
       <use transform="translate(193.771784 0)scale(0.996264)" xlink:href="#URW_Palladio_L_Bold-108"/>
       <use transform="translate(226.947014 0)scale(0.996264)" xlink:href="#URW_Palladio_L_Bold-112"/>
       <use transform="translate(287.818645 0)scale(0.996264)" xlink:href="#URW_Palladio_L_Bold-104"/>
       <use transform="translate(348.690275 0)scale(0.996264)" xlink:href="#URW_Palladio_L_Bold-112"/>
       <use transform="translate(409.561906 0)scale(0.996264)" xlink:href="#URW_Palladio_L_Bold-45"/>
       <use transform="translate(442.737136 0)scale(0.996264)" xlink:href="#URW_Palladio_L_Bold-110"/>
       <use transform="translate(503.608766 0)scale(0.996264)" xlink:href="#URW_Palladio_L_Bold-97"/>
       <use transform="translate(553.421967 0)scale(0.996264)" xlink:href="#URW_Palladio_L_Bold-116"/>
       <use transform="translate(586.597197 0)scale(0.996264)" xlink:href="#URW_Palladio_L_Bold-105"/>
       <use transform="translate(619.772426 0)scale(0.996264)" xlink:href="#URW_Palladio_L_Bold-118"/>
       <use transform="translate(675.164103 0)scale(0.996264)" xlink:href="#URW_Palladio_L_Bold-101"/>
      </g>
     </g>
    </g>
    <g id="ytick_6">
     <g id="line2d_15">
      <g>
       <use style="stroke:#000000;stroke-width:0.8;" x="90.297665" xlink:href="#med66ff877a" y="164.639289"/>
      </g>
     </g>
     <g id="text_16">
      <!-- \textbf{graalphp} -->
      <g transform="translate(42.341509 168.203408)scale(0.1 -0.1)">
       <use transform="scale(0.996264)" xlink:href="#URW_Palladio_L_Bold-103"/>
       <use transform="translate(55.391677 0)scale(0.996264)" xlink:href="#URW_Palladio_L_Bold-114"/>
       <use transform="translate(94.145383 0)scale(0.996264)" xlink:href="#URW_Palladio_L_Bold-97"/>
       <use transform="translate(143.958584 0)scale(0.996264)" xlink:href="#URW_Palladio_L_Bold-97"/>
       <use transform="translate(193.771784 0)scale(0.996264)" xlink:href="#URW_Palladio_L_Bold-108"/>
       <use transform="translate(226.947014 0)scale(0.996264)" xlink:href="#URW_Palladio_L_Bold-112"/>
       <use transform="translate(287.818645 0)scale(0.996264)" xlink:href="#URW_Palladio_L_Bold-104"/>
       <use transform="translate(348.690275 0)scale(0.996264)" xlink:href="#URW_Palladio_L_Bold-112"/>
      </g>
     </g>
    </g>
    <g id="ytick_7">
     <g id="line2d_16">
      <g>
       <use style="stroke:#000000;stroke-width:0.8;" x="90.297665" xlink:href="#med66ff877a" y="141.190567"/>
      </g>
     </g>
     <g id="text_17">
      <!-- PHP 7 -->
      <g transform="translate(55.502118 144.754685)scale(0.1 -0.1)">
       <use transform="scale(0.996264)" xlink:href="#URW_Palladio_L_Roman-80"/>
       <use transform="translate(60.173595 0)scale(0.996264)" xlink:href="#URW_Palladio_L_Roman-72"/>
       <use transform="translate(143.062256 0)scale(0.996264)" xlink:href="#URW_Palladio_L_Roman-80"/>
       <use transform="translate(228.142452 0)scale(0.996264)" xlink:href="#URW_Palladio_L_Roman-55"/>
      </g>
     </g>
    </g>
    <g id="ytick_8">
     <g id="line2d_17">
      <g>
       <use style="stroke:#000000;stroke-width:0.8;" x="90.297665" xlink:href="#med66ff877a" y="117.741844"/>
      </g>
     </g>
     <g id="text_18">
      <!-- PHP 8 Alpha -->
      <g transform="translate(25.594648 121.305962)scale(0.1 -0.1)">
       <use transform="scale(0.996264)" xlink:href="#URW_Palladio_L_Roman-80"/>
       <use transform="translate(60.173595 0)scale(0.996264)" xlink:href="#URW_Palladio_L_Roman-72"/>
       <use transform="translate(143.062256 0)scale(0.996264)" xlink:href="#URW_Palladio_L_Roman-80"/>
       <use transform="translate(228.142452 0)scale(0.996264)" xlink:href="#URW_Palladio_L_Roman-56"/>
       <use transform="translate(302.862252 0)scale(0.996264)" xlink:href="#URW_Palladio_L_Roman-65"/>
       <use transform="translate(380.370622 0)scale(0.996264)" xlink:href="#URW_Palladio_L_Roman-108"/>
       <use transform="translate(409.360984 0)scale(0.996264)" xlink:href="#URW_Palladio_L_Roman-112"/>
       <use transform="translate(469.235378 0)scale(0.996264)" xlink:href="#URW_Palladio_L_Roman-104"/>
       <use transform="translate(527.217438 0)scale(0.996264)" xlink:href="#URW_Palladio_L_Roman-97"/>
      </g>
     </g>
    </g>
    <g id="ytick_9">
     <g id="line2d_18">
      <g>
       <use style="stroke:#000000;stroke-width:0.8;" x="90.297665" xlink:href="#med66ff877a" y="94.293121"/>
      </g>
     </g>
     <g id="text_19">
      <!-- JPHP -->
      <g transform="translate(59.656583 97.85724)scale(0.1 -0.1)">
       <use transform="scale(0.996264)" xlink:href="#URW_Palladio_L_Roman-74"/>
       <use transform="translate(33.17523 0)scale(0.996264)" xlink:href="#URW_Palladio_L_Roman-80"/>
       <use transform="translate(93.348825 0)scale(0.996264)" xlink:href="#URW_Palladio_L_Roman-72"/>
       <use transform="translate(176.237486 0)scale(0.996264)" xlink:href="#URW_Palladio_L_Roman-80"/>
      </g>
     </g>
    </g>
    <g id="ytick_10">
     <g id="line2d_19">
      <g>
       <use style="stroke:#000000;stroke-width:0.8;" x="90.297665" xlink:href="#med66ff877a" y="70.844398"/>
      </g>
     </g>
     <g id="text_20">
      <!-- \textbf{graalphp-native} -->
      <g transform="translate(10.8 74.408517)scale(0.1 -0.1)">
       <use transform="scale(0.996264)" xlink:href="#URW_Palladio_L_Bold-103"/>
       <use transform="translate(55.391677 0)scale(0.996264)" xlink:href="#URW_Palladio_L_Bold-114"/>
       <use transform="translate(94.145383 0)scale(0.996264)" xlink:href="#URW_Palladio_L_Bold-97"/>
       <use transform="translate(143.958584 0)scale(0.996264)" xlink:href="#URW_Palladio_L_Bold-97"/>
       <use transform="translate(193.771784 0)scale(0.996264)" xlink:href="#URW_Palladio_L_Bold-108"/>
       <use transform="translate(226.947014 0)scale(0.996264)" xlink:href="#URW_Palladio_L_Bold-112"/>
       <use transform="translate(287.818645 0)scale(0.996264)" xlink:href="#URW_Palladio_L_Bold-104"/>
       <use transform="translate(348.690275 0)scale(0.996264)" xlink:href="#URW_Palladio_L_Bold-112"/>
       <use transform="translate(409.561906 0)scale(0.996264)" xlink:href="#URW_Palladio_L_Bold-45"/>
       <use transform="translate(442.737136 0)scale(0.996264)" xlink:href="#URW_Palladio_L_Bold-110"/>
       <use transform="translate(503.608766 0)scale(0.996264)" xlink:href="#URW_Palladio_L_Bold-97"/>
       <use transform="translate(553.421967 0)scale(0.996264)" xlink:href="#URW_Palladio_L_Bold-116"/>
       <use transform="translate(586.597197 0)scale(0.996264)" xlink:href="#URW_Palladio_L_Bold-105"/>
       <use transform="translate(619.772426 0)scale(0.996264)" xlink:href="#URW_Palladio_L_Bold-118"/>
       <use transform="translate(675.164103 0)scale(0.996264)" xlink:href="#URW_Palladio_L_Bold-101"/>
      </g>
     </g>
    </g>
    <g id="ytick_11">
     <g id="line2d_20">
      <g>
       <use style="stroke:#000000;stroke-width:0.8;" x="90.297665" xlink:href="#med66ff877a" y="47.395675"/>
      </g>
     </g>
     <g id="text_21">
      <!-- \textbf{graalphp} -->
      <g transform="translate(42.341509 50.959794)scale(0.1 -0.1)">
       <use transform="scale(0.996264)" xlink:href="#URW_Palladio_L_Bold-103"/>
       <use transform="translate(55.391677 0)scale(0.996264)" xlink:href="#URW_Palladio_L_Bold-114"/>
       <use transform="translate(94.145383 0)scale(0.996264)" xlink:href="#URW_Palladio_L_Bold-97"/>
       <use transform="translate(143.958584 0)scale(0.996264)" xlink:href="#URW_Palladio_L_Bold-97"/>
       <use transform="translate(193.771784 0)scale(0.996264)" xlink:href="#URW_Palladio_L_Bold-108"/>
       <use transform="translate(226.947014 0)scale(0.996264)" xlink:href="#URW_Palladio_L_Bold-112"/>
       <use transform="translate(287.818645 0)scale(0.996264)" xlink:href="#URW_Palladio_L_Bold-104"/>
       <use transform="translate(348.690275 0)scale(0.996264)" xlink:href="#URW_Palladio_L_Bold-112"/>
      </g>
     </g>
    </g>
   </g>
   <g id="patch_14">
    <path d="M 90.297665 303.924703 
L 90.297665 25.353876 
" style="fill:none;stroke:#000000;stroke-linecap:square;stroke-linejoin:miter;stroke-width:0.8;"/>
   </g>
   <g id="patch_15">
    <path d="M 90.297665 303.924703 
L 440.715565 303.924703 
" style="fill:none;stroke:#000000;stroke-linecap:square;stroke-linejoin:miter;stroke-width:0.8;"/>
   </g>
   <g id="text_22">
    <!-- 1.00 -->
    <g style="fill:#808080;" transform="translate(142.433686 284.042317)scale(0.1 -0.1)">
     <defs>
      <path d="M 12.40625 11.625 
C 9.40625 11.625 6.703125 8.8125 6.703125 5.8125 
C 6.703125 2.796875 9.40625 0 12.296875 0 
C 15.5 0 18.296875 2.703125 18.296875 5.8125 
C 18.296875 8.8125 15.5 11.625 12.40625 11.625 
z
" id="URW_Palladio_L_Roman-46"/>
     </defs>
     <use transform="scale(0.996264)" xlink:href="#URW_Palladio_L_Roman-49"/>
     <use transform="translate(49.8132 0)scale(0.996264)" xlink:href="#URW_Palladio_L_Roman-46"/>
     <use transform="translate(74.719801 0)scale(0.996264)" xlink:href="#URW_Palladio_L_Roman-48"/>
     <use transform="translate(124.533001 0)scale(0.996264)" xlink:href="#URW_Palladio_L_Roman-48"/>
    </g>
   </g>
   <g id="text_23">
    <!-- 1.01 -->
    <g style="fill:#808080;" transform="translate(143.022701 260.593594)scale(0.1 -0.1)">
     <use transform="scale(0.996264)" xlink:href="#URW_Palladio_L_Roman-49"/>
     <use transform="translate(49.8132 0)scale(0.996264)" xlink:href="#URW_Palladio_L_Roman-46"/>
     <use transform="translate(74.719801 0)scale(0.996264)" xlink:href="#URW_Palladio_L_Roman-48"/>
     <use transform="translate(124.533001 0)scale(0.996264)" xlink:href="#URW_Palladio_L_Roman-49"/>
    </g>
   </g>
   <g id="text_24">
    <!-- 0.69 -->
    <g style="fill:#808080;" transform="translate(129.17758 237.144871)scale(0.1 -0.1)">
     <defs>
      <path d="M 9.59375 -1.65625 
C 20.703125 1.953125 25.5 4.25 30.90625 8.84375 
C 40.59375 17.15625 45.703125 28.671875 45.703125 42.078125 
C 45.703125 59 37.59375 69.296875 24.40625 69.296875 
C 11.59375 69.296875 2 59.296875 2 45.90625 
C 2 34.390625 9.5 26 19.90625 26 
C 23.296875 26 27.203125 27.09375 29 28.59375 
L 36 34.40625 
C 35.203125 17.578125 24.296875 5.25 6.203125 0.84375 
L 6.203125 0.046875 
z
M 24 66 
C 28.5 66 31.796875 64.09375 34 60.09375 
C 35.796875 56.890625 37 52 37 47.5 
C 37 38.296875 31.703125 32.109375 24 32.109375 
C 16 32.109375 10.59375 39.203125 10.59375 49.59375 
C 10.59375 59.703125 15.796875 66 24 66 
z
" id="URW_Palladio_L_Roman-57"/>
     </defs>
     <use transform="scale(0.996264)" xlink:href="#URW_Palladio_L_Roman-48"/>
     <use transform="translate(49.8132 0)scale(0.996264)" xlink:href="#URW_Palladio_L_Roman-46"/>
     <use transform="translate(74.719801 0)scale(0.996264)" xlink:href="#URW_Palladio_L_Roman-54"/>
     <use transform="translate(124.533001 0)scale(0.996264)" xlink:href="#URW_Palladio_L_Roman-57"/>
    </g>
   </g>
   <g id="text_25">
    <!-- 7.68 -->
    <g style="fill:#808080;" transform="translate(432.718335 213.696148)scale(0.1 -0.1)">
     <use transform="scale(0.996264)" xlink:href="#URW_Palladio_L_Roman-55"/>
     <use transform="translate(49.8132 0)scale(0.996264)" xlink:href="#URW_Palladio_L_Roman-46"/>
     <use transform="translate(74.719801 0)scale(0.996264)" xlink:href="#URW_Palladio_L_Roman-54"/>
     <use transform="translate(124.533001 0)scale(0.996264)" xlink:href="#URW_Palladio_L_Roman-56"/>
    </g>
   </g>
   <g id="text_26">
    <!-- 0.05 -->
    <g style="fill:#808080;" transform="translate(100.949752 190.247426)scale(0.1 -0.1)">
     <use transform="scale(0.996264)" xlink:href="#URW_Palladio_L_Roman-48"/>
     <use transform="translate(49.8132 0)scale(0.996264)" xlink:href="#URW_Palladio_L_Roman-46"/>
     <use transform="translate(74.719801 0)scale(0.996264)" xlink:href="#URW_Palladio_L_Roman-48"/>
     <use transform="translate(124.533001 0)scale(0.996264)" xlink:href="#URW_Palladio_L_Roman-53"/>
    </g>
   </g>
   <g id="text_27">
    <!-- 0.16 -->
    <g style="fill:#808080;" transform="translate(105.7559 166.798703)scale(0.1 -0.1)">
     <use transform="scale(0.996264)" xlink:href="#URW_Palladio_L_Roman-48"/>
     <use transform="translate(49.8132 0)scale(0.996264)" xlink:href="#URW_Palladio_L_Roman-46"/>
     <use transform="translate(74.719801 0)scale(0.996264)" xlink:href="#URW_Palladio_L_Roman-49"/>
     <use transform="translate(124.533001 0)scale(0.996264)" xlink:href="#URW_Palladio_L_Roman-54"/>
    </g>
   </g>
   <g id="text_28">
    <!-- 0.80 -->
    <g style="fill:#808080;" transform="translate(133.914789 143.34998)scale(0.1 -0.1)">
     <use transform="scale(0.996264)" xlink:href="#URW_Palladio_L_Roman-48"/>
     <use transform="translate(49.8132 0)scale(0.996264)" xlink:href="#URW_Palladio_L_Roman-46"/>
     <use transform="translate(74.719801 0)scale(0.996264)" xlink:href="#URW_Palladio_L_Roman-56"/>
     <use transform="translate(124.533001 0)scale(0.996264)" xlink:href="#URW_Palladio_L_Roman-48"/>
    </g>
   </g>
   <g id="text_29">
    <!-- 0.80 -->
    <g style="fill:#808080;" transform="translate(133.919125 119.901257)scale(0.1 -0.1)">
     <use transform="scale(0.996264)" xlink:href="#URW_Palladio_L_Roman-48"/>
     <use transform="translate(49.8132 0)scale(0.996264)" xlink:href="#URW_Palladio_L_Roman-46"/>
     <use transform="translate(74.719801 0)scale(0.996264)" xlink:href="#URW_Palladio_L_Roman-56"/>
     <use transform="translate(124.533001 0)scale(0.996264)" xlink:href="#URW_Palladio_L_Roman-48"/>
    </g>
   </g>
   <g id="text_30">
    <!-- 0.63 -->
    <g style="fill:#808080;" transform="translate(126.237173 96.452534)scale(0.1 -0.1)">
     <use transform="scale(0.996264)" xlink:href="#URW_Palladio_L_Roman-48"/>
     <use transform="translate(49.8132 0)scale(0.996264)" xlink:href="#URW_Palladio_L_Roman-46"/>
     <use transform="translate(74.719801 0)scale(0.996264)" xlink:href="#URW_Palladio_L_Roman-54"/>
     <use transform="translate(124.533001 0)scale(0.996264)" xlink:href="#URW_Palladio_L_Roman-51"/>
    </g>
   </g>
   <g id="text_31">
    <!-- 1.76 -->
    <g style="fill:#808080;" transform="translate(175.47504 73.003811)scale(0.1 -0.1)">
     <use transform="scale(0.996264)" xlink:href="#URW_Palladio_L_Roman-49"/>
     <use transform="translate(49.8132 0)scale(0.996264)" xlink:href="#URW_Palladio_L_Roman-46"/>
     <use transform="translate(74.719801 0)scale(0.996264)" xlink:href="#URW_Palladio_L_Roman-55"/>
     <use transform="translate(124.533001 0)scale(0.996264)" xlink:href="#URW_Palladio_L_Roman-54"/>
    </g>
   </g>
   <g id="text_32">
    <!-- 6.11 -->
    <g style="fill:#808080;" transform="translate(364.391171 49.555088)scale(0.1 -0.1)">
     <use transform="scale(0.996264)" xlink:href="#URW_Palladio_L_Roman-54"/>
     <use transform="translate(49.8132 0)scale(0.996264)" xlink:href="#URW_Palladio_L_Roman-46"/>
     <use transform="translate(74.719801 0)scale(0.996264)" xlink:href="#URW_Palladio_L_Roman-49"/>
     <use transform="translate(124.533001 0)scale(0.996264)" xlink:href="#URW_Palladio_L_Roman-49"/>
    </g>
   </g>
   <g id="text_33">
    <!-- Binary-Trees -->
    <g transform="translate(232.331332 19.353876)scale(0.12 -0.12)">
     <defs>
      <path d="M 33.796875 69 
C 19.90625 69 19.90625 69 18.40625 69 
C 16.5 69 16.5 69 2.59375 69 
L 2.59375 66.1875 
L 6.203125 65.890625 
C 10.90625 65.484375 11.296875 64.78125 11.296875 56.921875 
L 11.296875 9.671875 
C 11.296875 6 10.5 3.796875 9.09375 3.203125 
L 6.5 2.203125 
L 6.5 0 
C 13.40625 0 15.5 0 17.40625 0 
C 18.5 0 19.59375 0 20.796875 0 
C 28.796875 0 28.796875 0 29.796875 0 
C 37.09375 0 43.703125 1.78125 48.203125 5.0625 
C 54.09375 9.21875 57.59375 15.96875 57.59375 22.921875 
C 57.59375 27.984375 55.59375 32.046875 51.796875 34.734375 
C 48 37.515625 44.59375 38.40625 36.90625 39 
C 41.796875 39.984375 44.09375 40.890625 46.90625 42.78125 
C 51.703125 46.046875 54.203125 50.328125 54.203125 55.5 
C 54.203125 64.234375 47.90625 69 36.296875 69 
z
M 20.796875 36.296875 
C 24.703125 36.296875 25.59375 36.296875 27.5 36.296875 
C 41 36.296875 47.296875 31.453125 47.296875 20.859375 
C 47.296875 10.34375 40.40625 4.109375 28.5 4.109375 
C 25.59375 4.109375 23.296875 4.3125 20.796875 4.90625 
z
M 20.796875 64.390625 
C 23.40625 64.984375 25.703125 65.1875 28.90625 65.1875 
C 39.59375 65.1875 44.296875 61.59375 44.296875 53.34375 
C 44.296875 44.671875 38.296875 40 26.90625 40 
C 25.203125 40 23.90625 40 20.796875 40 
z
" id="URW_Palladio_L_Roman-66"/>
      <path d="M 29.703125 8.8125 
C 27.5 12.625 26.40625 14.9375 24.59375 19.84375 
L 18.203125 36.671875 
C 17.59375 38.375 17.203125 39.875 17.203125 40.90625 
C 17.203125 42.34375 18.296875 43.1875 20.59375 43.1875 
L 24.40625 43.1875 
L 24.40625 46 
C 14.703125 46 14.703125 46 12.796875 46 
C 10.90625 46 10.90625 46 1.203125 46 
L 1.203125 43.390625 
L 3 43.1875 
C 5.5 42.890625 6.703125 41.78125 8.203125 38.296875 
L 19.09375 12.109375 
C 21.90625 5.3125 22.90625 2.90625 24.703125 -2.09375 
L 22.40625 -8.1875 
C 19.203125 -16.59375 15.296875 -21.28125 11.5 -21.28125 
C 9.90625 -21.28125 8.09375 -20.484375 6.40625 -18.984375 
L 5.09375 -18.984375 
L 2.703125 -26.5 
C 4.59375 -27.5 6.203125 -28 8.09375 -28 
C 14.796875 -28 19.09375 -24.40625 22.90625 -15.703125 
L 43.203125 31.09375 
C 47.203125 40.1875 49.09375 42.890625 51.59375 43.1875 
L 54.40625 43.390625 
L 54.40625 46 
C 46.5 46 46.5 46 44.90625 46 
C 43.296875 46 43.296875 46 35.40625 46 
L 35.40625 43.390625 
L 38 43.1875 
C 40.796875 42.984375 42.203125 42.09375 42.203125 40.6875 
C 42.203125 39.984375 42 39.078125 41.59375 38.078125 
z
" id="URW_Palladio_L_Roman-121"/>
      <path d="M 28.203125 22 
L 31.203125 28.703125 
L 30.703125 29.203125 
L 4.40625 29.203125 
L 1.703125 22.5 
L 2.203125 22 
z
" id="URW_Palladio_L_Roman-45"/>
      <path d="M 25.5 64.28125 
C 25.796875 60.875 25.90625 58.578125 25.90625 54.265625 
L 25.90625 11.921875 
C 25.90625 4 25.40625 3.203125 20.796875 3.203125 
L 16 3.203125 
L 16 0 
C 21.90625 0 25.40625 0 30.59375 0 
C 35.796875 0 39.40625 0 45.296875 0 
L 45.296875 3.203125 
L 40.5 3.203125 
C 35.90625 3.203125 35.40625 4 35.40625 11.921875 
L 35.40625 54.265625 
C 35.40625 58.78125 35.5 60.984375 35.796875 64.28125 
L 51.296875 64.28125 
C 54.09375 64.28125 55.203125 63.390625 55.296875 61 
L 55.703125 53.125 
L 58.796875 53.125 
C 58.796875 59.53125 59 63.375 59.5 69 
C 52.296875 69 49 69 46.203125 69 
C 42.296875 69 39.40625 69 37.90625 69 
L 22.09375 69 
C 21.09375 69 15.703125 69 8.59375 69 
L 1.796875 69 
C 2.296875 63.375 2.5 59.53125 2.5 53.125 
L 5.59375 53.125 
L 6 61 
C 6.09375 63.390625 7.203125 64.28125 10 64.28125 
z
" id="URW_Palladio_L_Roman-84"/>
     </defs>
     <use transform="scale(0.996264)" xlink:href="#URW_Palladio_L_Roman-66"/>
     <use transform="translate(60.871631 0)scale(0.996264)" xlink:href="#URW_Palladio_L_Roman-105"/>
     <use transform="translate(89.861992 0)scale(0.996264)" xlink:href="#URW_Palladio_L_Roman-110"/>
     <use transform="translate(147.844053 0)scale(0.996264)" xlink:href="#URW_Palladio_L_Roman-97"/>
     <use transform="translate(197.657253 0)scale(0.996264)" xlink:href="#URW_Palladio_L_Roman-114"/>
     <use transform="translate(237.00915 0)scale(0.996264)" xlink:href="#URW_Palladio_L_Roman-121"/>
     <use transform="translate(292.400827 0)scale(0.996264)" xlink:href="#URW_Palladio_L_Roman-45"/>
     <use transform="translate(325.576056 0)scale(0.996264)" xlink:href="#URW_Palladio_L_Roman-84"/>
     <use transform="translate(377.68053 0)scale(0.996264)" xlink:href="#URW_Palladio_L_Roman-114"/>
     <use transform="translate(415.239848 0)scale(0.996264)" xlink:href="#URW_Palladio_L_Roman-101"/>
     <use transform="translate(462.960143 0)scale(0.996264)" xlink:href="#URW_Palladio_L_Roman-101"/>
     <use transform="translate(510.680438 0)scale(0.996264)" xlink:href="#URW_Palladio_L_Roman-115"/>
    </g>
   </g>
   <g id="legend_1">
    <g id="patch_16">
     <path d="M 281.109716 298.924703 
L 433.715565 298.924703 
Q 435.715565 298.924703 435.715565 296.924703 
L 435.715565 267.109006 
Q 435.715565 265.109006 433.715565 265.109006 
L 281.109716 265.109006 
Q 279.109716 265.109006 279.109716 267.109006 
L 279.109716 296.924703 
Q 279.109716 298.924703 281.109716 298.924703 
z
" style="fill:#ffffff;opacity:0.8;stroke:#cccccc;stroke-linejoin:miter;"/>
    </g>
    <g id="patch_17">
     <path d="M 283.109716 276.707444 
L 303.109716 276.707444 
L 303.109716 269.707444 
L 283.109716 269.707444 
z
" style="fill:#008000;stroke:#008000;stroke-linejoin:miter;"/>
    </g>
    <g id="text_34">
     <!-- copy-by-reference (explicit) -->
     <g transform="translate(311.109716 276.707444)scale(0.1 -0.1)">
      <defs>
       <path d="M 39.90625 31.15625 
C 39.90625 35.765625 40.40625 39.875 41.296875 43.484375 
C 37.296875 45.890625 33.796875 47 29.703125 47 
C 24.90625 47 19.296875 45.09375 13.296875 41.28125 
C 6.296875 36.875 2.59375 29.859375 2.59375 21.046875 
C 2.59375 7.515625 12.09375 -2 25.5 -2 
C 30.703125 -2 38.203125 -0.09375 39.203125 1.40625 
L 41.296875 4.609375 
L 40.296875 6.109375 
C 36.59375 4.109375 33.40625 3.203125 29.796875 3.203125 
C 18.703125 3.203125 11.40625 11.828125 11.40625 25.046875 
C 11.40625 35.765625 16.40625 41.78125 25.40625 41.78125 
C 29.796875 41.78125 34.59375 39.78125 36.40625 37.28125 
L 37.09375 31.15625 
z
" id="URW_Palladio_L_Roman-99"/>
       <path d="M 27.90625 47 
C 13.296875 47 3.203125 36.671875 3.203125 21.75 
C 3.203125 7.609375 12.09375 -2 25 -2 
C 40.40625 -2 51.40625 8.71875 51.40625 23.75 
C 51.40625 37.28125 41.59375 47 27.90625 47 
z
M 26.09375 43.6875 
C 35.296875 43.6875 42.09375 33.671875 42.09375 20.046875 
C 42.09375 8.515625 37 1.296875 28.90625 1.296875 
C 19.09375 1.296875 12.5 10.921875 12.5 25.15625 
C 12.5 37.171875 17.296875 43.6875 26.09375 43.6875 
z
" id="URW_Palladio_L_Roman-111"/>
       <path d="M 34.09375 71.890625 
C 32 72.6875 30.796875 73 29.5 73 
C 26.296875 73 22.796875 71.296875 20.59375 68.8125 
L 14.796875 62.265625 
C 11.90625 58.984375 10.59375 54.53125 10.59375 47.96875 
L 10.59375 43.796875 
L 3.703125 40.6875 
L 3.703125 38.6875 
L 10.59375 38.6875 
L 10.59375 10.171875 
C 10.59375 3.8125 10.296875 3.109375 6.90625 3.109375 
L 2.296875 3.109375 
L 2.296875 0 
C 12.296875 0 12.296875 0 14.796875 0 
C 17.296875 0 17.296875 0 27.296875 0 
L 27.296875 3.109375 
L 22.703125 3.109375 
C 19.296875 3.109375 19 3.828125 19 10.203125 
L 19 38.890625 
L 31.40625 38.890625 
L 32.09375 44 
L 19 44 
L 19 52.34375 
C 19 63.640625 20.296875 66.375 26 66.375 
C 28.703125 66.375 30.5 65.6875 32.90625 63.609375 
L 34.09375 64.203125 
z
" id="URW_Palladio_L_Roman-102"/>
       <path d="M 28.796875 25.46875 
L 43 42.09375 
C 43.59375 42.796875 44.703125 43.203125 46.40625 43.203125 
L 47.796875 43.203125 
L 47.796875 46 
L 39.59375 46 
L 27.203125 28.46875 
L 19.59375 40.09375 
C 18.09375 42.296875 17 43.609375 13.59375 47.015625 
L 2 45 
L 2.5 42.3125 
L 4.59375 42.09375 
C 6.40625 42.09375 8.59375 40.703125 9.59375 39.296875 
L 21.59375 21.84375 
L 6.703125 4.203125 
C 6 3.3125 4.703125 2.703125 3.703125 2.703125 
L 2 2.703125 
L 2 0 
L 10.59375 0 
C 11.296875 1.109375 11.5 1.5 12.703125 3.3125 
C 14.296875 6.109375 15.90625 8.609375 16.59375 9.421875 
L 24 19.234375 
L 34.703125 3.25 
L 34.796875 3.0625 
C 35.703125 1.671875 36.5 0.6875 37.296875 0 
C 42.5 0 42.5 0 43.40625 0 
C 44.40625 0 44.40625 0 49.59375 0 
L 49.59375 2.703125 
L 47.09375 3 
C 45.90625 3.109375 44.703125 3.90625 43.59375 5.40625 
z
" id="URW_Palladio_L_Roman-120"/>
      </defs>
      <use transform="scale(0.996264)" xlink:href="#URW_Palladio_L_Roman-99"/>
      <use transform="translate(44.233569 0)scale(0.996264)" xlink:href="#URW_Palladio_L_Roman-111"/>
      <use transform="translate(98.629149 0)scale(0.996264)" xlink:href="#URW_Palladio_L_Roman-112"/>
      <use transform="translate(158.503543 0)scale(0.996264)" xlink:href="#URW_Palladio_L_Roman-121"/>
      <use transform="translate(213.89522 0)scale(0.996264)" xlink:href="#URW_Palladio_L_Roman-45"/>
      <use transform="translate(247.070449 0)scale(0.996264)" xlink:href="#URW_Palladio_L_Roman-98"/>
      <use transform="translate(302.162849 0)scale(0.996264)" xlink:href="#URW_Palladio_L_Roman-121"/>
      <use transform="translate(357.554526 0)scale(0.996264)" xlink:href="#URW_Palladio_L_Roman-45"/>
      <use transform="translate(390.729755 0)scale(0.996264)" xlink:href="#URW_Palladio_L_Roman-114"/>
      <use transform="translate(428.289073 0)scale(0.996264)" xlink:href="#URW_Palladio_L_Roman-101"/>
      <use transform="translate(476.009368 0)scale(0.996264)" xlink:href="#URW_Palladio_L_Roman-102"/>
      <use transform="translate(509.184598 0)scale(0.996264)" xlink:href="#URW_Palladio_L_Roman-101"/>
      <use transform="translate(556.904893 0)scale(0.996264)" xlink:href="#URW_Palladio_L_Roman-114"/>
      <use transform="translate(594.46421 0)scale(0.996264)" xlink:href="#URW_Palladio_L_Roman-101"/>
      <use transform="translate(642.184505 0)scale(0.996264)" xlink:href="#URW_Palladio_L_Roman-110"/>
      <use transform="translate(700.166566 0)scale(0.996264)" xlink:href="#URW_Palladio_L_Roman-99"/>
      <use transform="translate(744.400135 0)scale(0.996264)" xlink:href="#URW_Palladio_L_Roman-101"/>
      <use transform="translate(817.02703 0)scale(0.996264)" xlink:href="#URW_Palladio_L_Roman-40"/>
      <use transform="translate(850.20226 0)scale(0.996264)" xlink:href="#URW_Palladio_L_Roman-101"/>
      <use transform="translate(897.922555 0)scale(0.996264)" xlink:href="#URW_Palladio_L_Roman-120"/>
      <use transform="translate(949.328902 0)scale(0.996264)" xlink:href="#URW_Palladio_L_Roman-112"/>
      <use transform="translate(1009.203296 0)scale(0.996264)" xlink:href="#URW_Palladio_L_Roman-108"/>
      <use transform="translate(1038.193657 0)scale(0.996264)" xlink:href="#URW_Palladio_L_Roman-105"/>
      <use transform="translate(1067.184019 0)scale(0.996264)" xlink:href="#URW_Palladio_L_Roman-99"/>
      <use transform="translate(1111.417587 0)scale(0.996264)" xlink:href="#URW_Palladio_L_Roman-105"/>
      <use transform="translate(1140.407949 0)scale(0.996264)" xlink:href="#URW_Palladio_L_Roman-116"/>
      <use transform="translate(1172.885037 0)scale(0.996264)" xlink:href="#URW_Palladio_L_Roman-41"/>
     </g>
    </g>
    <g id="patch_18">
     <path d="M 283.109716 292.115292 
L 303.109716 292.115292 
L 303.109716 285.115292 
L 283.109716 285.115292 
z
" style="fill:#0000ff;stroke:#0000ff;stroke-linejoin:miter;"/>
    </g>
    <g id="text_35">
     <!-- copy-by-value (default) -->
     <g transform="translate(311.109716 292.115292)scale(0.1 -0.1)">
      <defs>
       <path d="M 53.90625 43 
L 53.90625 45.8125 
C 47.90625 45.8125 46.09375 45.8125 44.5 45.8125 
C 42.90625 45.8125 41.09375 45.8125 35.09375 45.8125 
L 35.09375 43 
L 39.203125 43 
C 40.796875 43 41.59375 42.09375 41.59375 40.484375 
C 41.59375 38.890625 40.90625 36.203125 39.703125 33.1875 
L 35.5 22.578125 
C 34.296875 19.671875 33.09375 16.875 29.296875 8.578125 
L 17.40625 37.390625 
C 16.796875 38.78125 16.5 40.09375 16.5 41.1875 
C 16.5 42.296875 17.40625 43 19 43 
L 23.90625 43 
L 23.90625 45.8125 
C 14.09375 45.8125 14.09375 45.8125 12.203125 45.8125 
C 10.296875 45.8125 5.5 45.8125 0.59375 45.8125 
L 0.59375 43 
L 4 43 
C 5.5 42.796875 6 42.203125 7.09375 39.703125 
L 24.296875 -0.5 
L 29.296875 -0.5 
C 29.90625 1.203125 30.90625 3.796875 30.90625 4 
C 32 6.984375 33.296875 10.375 33.40625 10.375 
L 45.203125 36.3125 
C 47.40625 41.015625 48.796875 42.796875 50.796875 43 
z
" id="URW_Palladio_L_Roman-118"/>
      </defs>
      <use transform="scale(0.996264)" xlink:href="#URW_Palladio_L_Roman-99"/>
      <use transform="translate(44.233569 0)scale(0.996264)" xlink:href="#URW_Palladio_L_Roman-111"/>
      <use transform="translate(98.629149 0)scale(0.996264)" xlink:href="#URW_Palladio_L_Roman-112"/>
      <use transform="translate(158.503543 0)scale(0.996264)" xlink:href="#URW_Palladio_L_Roman-121"/>
      <use transform="translate(213.89522 0)scale(0.996264)" xlink:href="#URW_Palladio_L_Roman-45"/>
      <use transform="translate(247.070449 0)scale(0.996264)" xlink:href="#URW_Palladio_L_Roman-98"/>
      <use transform="translate(302.162849 0)scale(0.996264)" xlink:href="#URW_Palladio_L_Roman-121"/>
      <use transform="translate(357.554526 0)scale(0.996264)" xlink:href="#URW_Palladio_L_Roman-45"/>
      <use transform="translate(390.729755 0)scale(0.996264)" xlink:href="#URW_Palladio_L_Roman-118"/>
      <use transform="translate(447.017669 0)scale(0.996264)" xlink:href="#URW_Palladio_L_Roman-97"/>
      <use transform="translate(496.830869 0)scale(0.996264)" xlink:href="#URW_Palladio_L_Roman-108"/>
      <use transform="translate(525.821231 0)scale(0.996264)" xlink:href="#URW_Palladio_L_Roman-117"/>
      <use transform="translate(585.894965 0)scale(0.996264)" xlink:href="#URW_Palladio_L_Roman-101"/>
      <use transform="translate(658.521861 0)scale(0.996264)" xlink:href="#URW_Palladio_L_Roman-40"/>
      <use transform="translate(691.697091 0)scale(0.996264)" xlink:href="#URW_Palladio_L_Roman-100"/>
      <use transform="translate(752.568721 0)scale(0.996264)" xlink:href="#URW_Palladio_L_Roman-101"/>
      <use transform="translate(800.289016 0)scale(0.996264)" xlink:href="#URW_Palladio_L_Roman-102"/>
      <use transform="translate(833.464246 0)scale(0.996264)" xlink:href="#URW_Palladio_L_Roman-97"/>
      <use transform="translate(883.277447 0)scale(0.996264)" xlink:href="#URW_Palladio_L_Roman-117"/>
      <use transform="translate(943.351181 0)scale(0.996264)" xlink:href="#URW_Palladio_L_Roman-108"/>
      <use transform="translate(972.341543 0)scale(0.996264)" xlink:href="#URW_Palladio_L_Roman-116"/>
      <use transform="translate(1004.818631 0)scale(0.996264)" xlink:href="#URW_Palladio_L_Roman-41"/>
     </g>
    </g>
   </g>
  </g>
 </g>
 <defs>
  <clipPath id="p311cf0fd66">
   <rect height="278.570828" width="350.4179" x="90.297665" y="25.353876"/>
  </clipPath>
 </defs>
</svg>
